<?xml version="1.0" encoding="UTF-8"?>
<svg id="_圖層_2" xmlns="http://www.w3.org/2000/svg" version="1.1" viewBox="0 0 110 110">
  <!-- Generator: Adobe Illustrator 29.3.1, SVG Export Plug-In . SVG Version: 2.1.0 Build 151)  -->
  <defs>
    <style>
      .st0 {
        isolation: isolate;
      }

      .st1 {
        fill: #efc048;
      }
    </style>
  </defs>
  <g id="sec03">
    <g id="sec03-mission-01">
      <circle class="st1" cx="55" cy="55" r="55"/>
      <g class="st0">
        <g class="st0">
          <path d="M26.7,63.8c0-12.8,5-19.1,12.6-19.1s12.5,6.3,12.5,19.1-5,19.4-12.5,19.4-12.6-6.6-12.6-19.4ZM44.8,63.8c0-10.4-2.4-13.4-5.6-13.4s-5.6,3-5.6,13.4,2.4,13.6,5.6,13.6,5.6-3.2,5.6-13.6Z"/>
          <path d="M59.6,76.5h8v-23.4h-6.7v-4.6c3.7-.7,6.3-1.6,8.6-3.1h5.5v31.1h7v6h-22.3v-6Z"/>
        </g>
      </g>
      <g class="st0">
        <g class="st0">
          <path d="M40.4,17.3c-.6,1.5-1.3,3-2.2,4.5v15.1h-2.6v-11.3c-.6.8-1.2,1.5-1.9,2.1-.3-.7-1.1-2.1-1.5-2.8,2.2-2,4.3-5.2,5.6-8.4l2.6.8ZM47.6,28.2v5.5h5.2v2.5h-12.9v-2.5h5.1v-5.5h-5.7v-2.5h5.7v-4.8h-4.5v-2.5h12v2.5h-4.8v4.8h5.7v2.5h-5.7Z"/>
          <path d="M75.3,20.8c-.6,1.3-1.3,2.3-2.2,3.2,1.2.6,2.6,1,4,1.3-.6.5-1.3,1.6-1.7,2.2-1.7-.4-3.2-1.1-4.5-1.9-1.3.8-2.8,1.4-4.5,1.8-.1-.2-.4-.6-.6-.9-.3,1.4-.7,2.7-1.1,3.7l-1.8-.8c.2-.8.5-1.9.7-3h-1.2v7.7c0,1.2-.2,1.9-.9,2.3-.7.4-1.7.5-3.1.5,0-.7-.4-1.8-.7-2.5.8,0,1.7,0,2,0,.3,0,.4,0,.4-.3v-4.7c-.8,1.6-1.7,3.1-2.8,4.1-.2-.7-.8-1.8-1.2-2.5,1.2-1.1,2.4-2.8,3.1-4.5h-2.8v-2.3h5c-1.2-.7-2.9-1.6-4.2-2.1l1.7-1.7c.5.2,1.1.4,1.7.7.5-.4,1-.9,1.4-1.4h-5.3v-2.2h7.5c0,0,1.7,1,1.7,1-.7,1.2-2,2.6-3.2,3.6.6.3,1.2.7,1.6,1l-1.1,1.1h1.4c0-.1,1.6.4,1.6.4v.5c.9-.3,1.8-.6,2.6-1-.6-.5-1.1-1.2-1.6-1.8-.3.4-.7.7-1,.9-.5-.4-1.5-1.1-2.1-1.5,1.7-1.2,3.3-3.2,4.2-5.2l2.4.7c-.2.5-.5,1-.8,1.5h6.5v2.2h-1.3ZM76.4,28.7s0,.7,0,1c-.4,3.8-.7,5.5-1.4,6.2-.5.5-.9.7-1.6.8-.6,0-1.5,0-2.5,0,0-.7-.3-1.8-.7-2.4.8,0,1.5.1,1.9.1s.5,0,.7-.2c.3-.3.6-1.2.8-3.3h-2.6c-.7,2.6-2.3,4.8-5.8,6.1-.3-.6-1-1.5-1.5-2,2.6-1,3.9-2.4,4.6-4.1h-2.7v-2.2h3.2c.1-.6.2-1.3.2-2h2.6c0,.7-.1,1.3-.2,2h4.9ZM69.1,20.8c.5.7,1.1,1.3,1.8,1.9.6-.5,1.1-1.2,1.5-1.9h-3.3Z"/>
        </g>
      </g>
    </g>
  </g>
</svg>