<?xml version="1.0" encoding="UTF-8"?>
<svg id="_圖層_2" xmlns="http://www.w3.org/2000/svg" version="1.1" viewBox="0 0 24 24">
  <!-- Generator: Adobe Illustrator 29.3.1, SVG Export Plug-In . SVG Version: 2.1.0 Build 151)  -->
  <defs>
    <style>
      .st0 {
        fill: #efc048;
      }
    </style>
  </defs>
  <g id="icon-info">
    <g>
      <circle class="st0" cx="12" cy="12" r="11"/>
      <path d="M12,24C5.4,24,0,18.6,0,12S5.4,0,12,0s12,5.4,12,12-5.4,12-12,12ZM12,2C6.5,2,2,6.5,2,12s4.5,10,10,10,10-4.5,10-10S17.5,2,12,2Z"/>
    </g>
    <path d="M10.1,16.9c0-1.1.8-1.9,1.9-1.9s1.9.9,1.9,1.9-.8,2-1.9,2-1.9-.9-1.9-2ZM10.5,7.9v-2.8c-.1,0,3.1,0,3.1,0v2.8c-.1,0-.6,5.9-.6,5.9h-2l-.5-5.9Z"/>
  </g>
</svg>