<?xml version="1.0" encoding="UTF-8"?>
<svg id="_圖層_2" xmlns="http://www.w3.org/2000/svg" version="1.1" viewBox="0 0 26.8 39">
  <!-- Generator: Adobe Illustrator 29.3.1, SVG Export Plug-In . SVG Version: 2.1.0 Build 151)  -->
  <defs>
    <style>
      .st0 {
        fill: #bfc8cc;
      }

      .st1 {
        fill: #ffdf98;
      }
    </style>
  </defs>
  <g id="icon-light">
    <g>
      <path class="st1" d="M21.3,27.8h0c.2-.9,1-3.2,1.3-3.7.2-.3.4-.6.6-1,1.2-2,3.3-5.2,3.3-9.7C26.6,6.1,20.7.2,13.4.2S.2,6.1.2,13.3s2.1,7.8,3.3,9.7c.2.4.4.7.6,1,.3.5,1,2.8,1.3,3.6h0c0,.3.7,1.3,1.7,1.7h12.4c1-.4,1.6-1.5,1.7-1.6h0Z"/>
      <path class="st0" d="M7.7,33.8c0,.6.2,1.2.6,1.7.6.7,1.5,1.1,2.8,1.3v.7c0,.3.1.5.4.7.3.3.9.4,1.9.4s1.5,0,1.9-.4c.2-.2.4-.4.4-.7v-.7c1.3-.2,2.3-.6,2.8-1.3.4-.5.6-1.1.6-1.7v-4.2c.2,0,.3-.1.5-.2H7.2c.2,0,.3.1.5.2v4.2h0Z"/>
    </g>
    <path d="M13.4,0C6,0,0,6,0,13.4s2.1,7.9,3.4,9.9c.2.4.4.7.6,1,.3.5.9,2.4,1.3,3.6,0,0,1,1.7,2.2,2.1v4c0,.7.2,1.4.7,1.9.6.7,1.5,1.1,2.8,1.3v.5c0,.3.2.7.5.9.4.3,1,.4,2,.4s1.6,0,2-.4c.3-.2.5-.6.5-.9v-.5c1.3-.2,2.2-.7,2.8-1.3s.7-1.9.7-1.9v-4c1.2-.4,2.1-2.1,2.1-2.1.4-1.1,1.1-3.1,1.3-3.6.2-.3.4-.6.6-1,1.3-2,3.4-5.3,3.4-9.9-.1-7.4-6.1-13.4-13.5-13.4ZM11.6,21.4c.3.8,1.1,1.4,1.9,1.4s1.5-.6,1.9-1.4c.3-.8.1-1.7-.5-2.4.7-.3,1.3-.3,1.9,0s1,1,1,1.7c0,1-1.4,5-2.3,7.7h-3.7c-.9-2.7-2.2-6.7-2.3-7.7,0-.7.3-1.4.9-1.7.5-.3,1.2-.3,1.9,0-1.2.9-.7,2.4-.7,2.4ZM13.5,19.9c.4,0,.6.4.6.7s-.3.8-.6.8-.7-.4-.7-.7.3-.8.7-.8ZM9,33.6v-1l8.9-2.1v1.3l-8.9,1.8ZM13.6,30l-4.6,1.1v-1.1h4.6ZM14.4,37.3h0c-.1,0-.4,0-1,0h-1,2ZM17.6,34.8c-.6.7-2,1-4.1,1s-3.2-.3-3.9-.8l8.3-1.7v.5c0,.3-.3,1-.3,1ZM22.2,22.5c-.3.4-.5.7-.6,1-.4.7-1.2,3.2-1.4,3.8-.3.4-.9,1.2-1.4,1.2h-1.9c.7-2,2.1-6.3,2.2-7.5.1-1.3-.6-2.6-1.8-3.2-.6-.3-2-.8-3.9.3-1.9-1.1-3.3-.6-3.9-.3-1.2.6-1.9,1.9-1.7,3.2,0,1.2,1.6,5.5,2.2,7.5h-1.9c-.5,0-1.2-.7-1.4-1.2-.2-.6-.9-3.1-1.4-3.8-.2-.3-.4-.6-.6-1-1.3-2-3.1-4.9-3.1-9.1C1.5,6.8,6.8,1.5,13.4,1.5s11.9,5.3,11.9,11.9-1.9,7.1-3.1,9.1Z"/>
  </g>
</svg>