<?xml version="1.0" encoding="UTF-8"?>
<svg id="_圖層_2" xmlns="http://www.w3.org/2000/svg" version="1.1" viewBox="0 0 32 32">
  <!-- Generator: Adobe Illustrator 29.3.1, SVG Export Plug-In . SVG Version: 2.1.0 Build 151)  -->
  <g id="_POP_UP_任務01-01">
    <g id="icon-close">
      <path d="M16,32C7.2,32,0,24.8,0,16S7.2,0,16,0s16,7.2,16,16-7.2,16-16,16ZM16,2c-7.7,0-14,6.3-14,14s6.3,14,14,14,14-6.3,14-14S23.7,2,16,2Z"/>
      <g>
        <path d="M20.5,21.5c-.3,0-.5,0-.7-.3l-9-9c-.4-.4-.4-1,0-1.4s1-.4,1.4,0l9,9c.4.4.4,1,0,1.4s-.5.3-.7.3Z"/>
        <path d="M11.5,21.5c-.3,0-.5,0-.7-.3-.4-.4-.4-1,0-1.4l9-9c.4-.4,1-.4,1.4,0s.4,1,0,1.4l-9,9c-.2.2-.5.3-.7.3Z"/>
      </g>
    </g>
  </g>
</svg>