<?xml version="1.0" encoding="utf-8"?>
<!-- Generator: Adobe Illustrator 24.2.0, SVG Export Plug-In . SVG Version: 6.00 Build 0)  -->
<svg version="1.1" id="圖層_1" xmlns="http://www.w3.org/2000/svg" xmlns:xlink="http://www.w3.org/1999/xlink" x="0px" y="0px"
	 viewBox="0 0 375 358" style="enable-background:new 0 0 375 358;" xml:space="preserve">
<style type="text/css">
	.st0{fill:#FFFFFF;stroke:url(#SVGID_1_);stroke-miterlimit:10;}
	.st1{fill:#FFDD66;}
	.st2{fill:#0089D1;}
	.st3{fill:#FFFFFF;stroke:url(#SVGID_2_);stroke-miterlimit:10;}
	.st4{fill:#FFFFFF;}
	.st5{enable-background:new    ;}
	.st6{fill:#FFFFFF;stroke:url(#SVGID_3_);stroke-miterlimit:10;}
</style>
<g id="圖層_2_1_">
	<g id="圖層_3">
		
			<linearGradient id="SVGID_1_" gradientUnits="userSpaceOnUse" x1="14.9" y1="212.3" x2="173.5" y2="212.3" gradientTransform="matrix(1 0 0 1 0 -120)">
			<stop  offset="0" style="stop-color:#0089D1"/>
			<stop  offset="1" style="stop-color:#05B3FE"/>
		</linearGradient>
		<circle class="st0" cx="94.2" cy="92.3" r="78.8"/>
		<circle class="st1" cx="93.9" cy="97.3" r="10.4"/>
		<path class="st2" d="M160,91h-7.4V67.4c0-0.4-0.2-0.8-0.6-0.9c-0.4-0.2-0.8-0.1-1.1,0.2l-2.8,2.8l-2.8-2.8c-0.4-0.4-1-0.4-1.4,0
			l0,0l-2.8,2.8l-2.8-2.8c-0.4-0.4-1-0.4-1.4,0l-2.8,2.8l-2.8-2.8c-0.4-0.4-1-0.4-1.4,0l0,0l-2.8,2.8l-2.8-2.8c-0.4-0.4-1-0.4-1.4,0
			l-2.8,2.8l-2.8-2.8c-0.4-0.4-1-0.4-1.4,0c-0.2,0.2-0.3,0.5-0.3,0.7v45c0,2.9,2.3,5.2,5.2,5.2h35.4c2.9,0,5.2-2.3,5.2-5.2V92
			C161,91.4,160.6,91,160,91L160,91z M120.4,115.6c-1.8,0-3.2-1.4-3.2-3.2V69.8l1.8,1.8c0.4,0.4,1,0.4,1.4,0l2.8-2.8l2.8,2.8
			c0.4,0.4,1,0.4,1.4,0l0,0l2.8-2.8l2.8,2.8c0.4,0.4,1,0.4,1.4,0l2.8-2.8l2.8,2.8c0.4,0.4,1,0.4,1.4,0l0,0l2.8-2.8l2.8,2.8
			c0.4,0.4,1,0.4,1.4,0l1.8-1.8v42.6c0,1.2,0.4,2.3,1.1,3.2H120.4z M159,112.4c0,1.8-1.4,3.2-3.2,3.2s-3.2-1.4-3.2-3.2V93h6.4V112.4
			L159,112.4z"/>
		<path class="st2" d="M144.5,88.7h-15.9c-0.6,0-1,0.4-1,1s0.4,1,1,1h15.9c0.6,0,1-0.4,1-1S145,88.7,144.5,88.7z"/>
		<path class="st2" d="M124.1,89c-0.4-0.4-1-0.4-1.4,0s-0.4,1,0,1.4s1,0.4,1.4,0C124.4,90,124.4,89.4,124.1,89L124.1,89z"/>
		<path class="st2" d="M144.5,82.1h-15.9c-0.6,0-1,0.4-1,1s0.4,1,1,1h15.9c0.6,0,1-0.4,1-1S145,82.1,144.5,82.1z"/>
		<path class="st2" d="M124.1,82.4c-0.4-0.4-1-0.4-1.4,0c-0.2,0.2-0.3,0.4-0.3,0.7c0,0.6,0.4,1,1,1c0.3,0,0.5-0.1,0.7-0.3
			c0.2-0.2,0.3-0.4,0.3-0.7C124.3,82.8,124.2,82.6,124.1,82.4z"/>
		<path class="st2" d="M144.5,95.3h-15.9c-0.6,0-1,0.4-1,1s0.4,1,1,1h15.9c0.6,0,1-0.4,1-1S145,95.3,144.5,95.3z"/>
		<path class="st2" d="M124.1,95.6c-0.4-0.4-1-0.4-1.4,0s-0.4,1,0,1.4s1,0.4,1.4,0c0.2-0.2,0.3-0.4,0.3-0.7
			C124.3,96.1,124.2,95.8,124.1,95.6z"/>
		<path class="st2" d="M144.5,101.9h-15.9c-0.6,0-1,0.4-1,1s0.4,1,1,1h15.9c0.6,0,1-0.4,1-1S145,101.9,144.5,101.9z"/>
		<path class="st2" d="M124.1,102.2c-0.4-0.4-1-0.4-1.4,0s-0.4,1,0,1.4s1,0.4,1.4,0c0.2-0.2,0.3-0.4,0.3-0.7
			C124.3,102.7,124.2,102.4,124.1,102.2z"/>
		<path class="st2" d="M93,72.7c-0.1,0-0.3,0-0.4-0.1c-0.4-0.2-0.6-0.8-0.4-1.2c0.6-0.9,0.7-2,0.4-3c-0.2-0.5,0-1,0.4-1.2
			s1,0,1.2,0.4c0.6,1.2,0.4,2.8-0.4,4.6C93.7,72.5,93.3,72.7,93,72.7L93,72.7z"/>
		<path class="st2" d="M48.8,94.2c-0.5,0-0.9-0.4-0.9-0.9c0-0.4,0.2-0.7,0.5-0.8l40-18.7c0.5-0.2,1,0.1,1.2,0.6
			c0.1,0.4,0,0.9-0.4,1.1l-40,18.7C49,94.2,48.9,94.2,48.8,94.2L48.8,94.2z"/>
		<path class="st2" d="M103.1,69.2c-0.8-1.7-2.4-2.8-4.2-2.8h-1.1c-4.6-0.1-9.2,0.8-13.3,2.8L44.3,87.9l-13.3-4
			c-0.2-0.1-0.4-0.1-0.6,0l-6.2,2.9c-0.5,0.2-0.7,0.7-0.5,1.2c0.1,0.2,0.2,0.3,0.4,0.4L45.8,101c2.2,1.3,4.9,1.4,7.3,0.3l13.2-6.2
			l0.3,21.1c0,0.7,0.4,1.3,1,1.7c0.3,0.1,0.6,0.2,0.9,0.2c0.4,0,0.7-0.1,1-0.3c3.4-2.3,5.8-5.8,6.6-9.8l4-19.2l11.2-5.2
			c4.2-1.9,7.9-4.8,10.7-8.4l0.7-0.9C103.7,72.8,103.9,70.9,103.1,69.2L103.1,69.2z M101.1,73.2l-0.7,0.9c-2.7,3.4-6.1,6.1-10.1,7.9
			l-11.6,5.3c-0.3,0.1-0.4,0.4-0.5,0.6l-4,19.7c-0.7,3.5-2.8,6.6-5.8,8.7h-0.1c0,0,0,0,0-0.1L68,93.8c0-0.3-0.2-0.6-0.4-0.8
			c-0.1-0.1-0.3-0.1-0.5-0.1c-0.1,0-0.3,0-0.4,0.1l-14.5,6.8c-1.8,0.8-3.9,0.7-5.6-0.2L26.4,87.8l4.3-2l13.3,4
			c0.2,0.1,0.4,0.1,0.6,0L85,70.9c3.9-1.8,8.2-2.7,12.5-2.6h1.1c1.7,0,3,1.4,3,3C101.8,71.9,101.5,72.6,101.1,73.2L101.1,73.2z"/>
		<path class="st2" d="M49,71l8.5,6.6c0.2,0.1,0.4,0.2,0.5,0.2c0.5,0,0.9-0.4,0.9-0.9c0-0.3-0.1-0.5-0.3-0.7l-8.5-6.6c0,0,0,0,0-0.1
			c0,0,0,0,0-0.1c2.6-1.2,5.7-1.3,8.4-0.3l10,3.6c0.5,0.2,1-0.1,1.2-0.6c0.1-0.5-0.1-1-0.6-1.1l0,0l-10-3.6c-3.2-1.2-6.7-1-9.8,0.4
			c-0.6,0.3-1,0.8-1.1,1.5C48.1,70,48.4,70.6,49,71z"/>
		<path class="st2" d="M93.9,108.9c-6.1,0-11-4.9-11-11s4.9-11,11-11s11,4.9,11,11S100,108.9,93.9,108.9z M93.9,88.7
			c-5.1,0-9.2,4.1-9.2,9.2s4.1,9.2,9.2,9.2s9.2-4.1,9.2-9.2l0,0C103.1,92.8,99,88.7,93.9,88.7z"/>
		<path class="st2" d="M98.1,100.4c-0.1,0-0.2,0-0.3-0.1l-4.2-1.6c-0.3-0.1-0.6-0.5-0.6-0.8v-6.3c0.1-0.5,0.5-0.9,1-0.8
			c0.4,0,0.8,0.4,0.8,0.8v5.7l3.7,1.4c0.5,0.2,0.7,0.7,0.5,1.2C98.8,100.2,98.5,100.4,98.1,100.4z"/>
		
			<linearGradient id="SVGID_2_" gradientUnits="userSpaceOnUse" x1="202.2" y1="212.3" x2="360.8" y2="212.3" gradientTransform="matrix(1 0 0 1 0 -120)">
			<stop  offset="0" style="stop-color:#0089D1"/>
			<stop  offset="1" style="stop-color:#05B3FE"/>
		</linearGradient>
		<circle class="st3" cx="281.5" cy="92.3" r="78.8"/>
		<path class="st4" d="M245.2,111.2c0,2.7,2.2,4.8,4.8,4.8l0,0h35.4c2.7,0,4.8-2.2,4.8-4.8l0,0V83.9h-45L245.2,111.2z"/>
		<path class="st2" d="M243.7,111.2c0.1,3.6,3.1,6.4,6.7,6.3h0.1c1.9,0,3.7,0,5.6,0h27.4c2.2,0,4.2,0,6-1.5c2.1-1.8,2.2-4.2,2.2-6.6
			V83.9c0-0.8-0.7-1.5-1.5-1.5h-45c-0.8,0-1.5,0.7-1.5,1.5L243.7,111.2c0,0.8,0.7,1.5,1.5,1.5s1.5-0.7,1.5-1.5V83.9l-1.5,1.5h45
			l-1.5-1.5v13.3c0,4.7,0.2,9.3,0,14c-0.1,2.5-2,3.4-4.2,3.4h-32.8c-0.5,0-1.1,0-1.6,0c-1.9,0-3.4-1.5-3.4-3.3
			C246.7,109.3,243.7,109.3,243.7,111.2z"/>
		<path class="st4" d="M278.6,90.4h4c0.7,0,1.2,0.5,1.2,1.2v4c0,0.7-0.5,1.2-1.2,1.2h-4c-0.7,0-1.2-0.5-1.2-1.2v-4
			C277.4,90.9,277.9,90.4,278.6,90.4z"/>
		<path class="st2" d="M278.9,91.6C278.9,91.2,278.8,91.9,278.9,91.6C278.8,91.9,278.8,91.7,278.9,91.6c0.1,0-0.3,0.4,0,0.2
			s-0.3,0.2,0,0c0.1,0,0.2-0.1-0.1,0c0.3-0.1-0.4,0,0,0l0,0c0.3,0,0.5,0,0.8,0h3.2c0.3,0-0.3-0.1,0,0c-0.4-0.1-0.2-0.1-0.1,0
			c0.3,0.2-0.2-0.2,0,0s-0.2-0.2-0.1-0.1s0.1,0.3,0-0.1c0.1,0.3,0-0.3,0,0c0,0.7,0,1.3,0,1.9s0,1.4,0,2l0,0c0,0.3,0.1-0.3,0-0.1
			s0.2-0.3,0-0.1s0.2-0.3,0,0s0-0.1,0.1-0.1h-0.1c-0.1,0.1-0.1,0,0.1,0c-0.3,0.1,0.4,0,0.1,0s-0.4,0-0.6,0h-3.4c0,0,0,0-0.1,0
			c-0.2,0,0.1,0,0.1,0c-0.3-0.1,0.3,0.2,0,0s0.2,0.2,0.1,0.1s0.1-0.1,0,0.1c0,0-0.1-0.1-0.1-0.2c0.1,0.2,0.1,0.3,0.1,0.2
			s0,0.4,0,0.1V91.6c0-0.9-0.7-1.6-1.5-1.6s-1.5,0.7-1.5,1.5v2.1c0,0.7,0,1.4,0,2.1c0.1,1.2,0.9,2.3,2.1,2.5
			c0.4,0.1,0.7,0.1,1.1,0.1h3.5c1.2,0,2.2-0.8,2.6-1.9c0.2-0.8,0.2-1.7,0.1-2.5c0-0.8,0-1.5,0-2.3c0-1-0.5-1.9-1.3-2.4
			c-0.5-0.3-1.1-0.4-1.6-0.3h-3c-0.3,0-0.6,0-0.8,0c-1.4,0.1-2.6,1.3-2.6,2.7c0,0.8,0.7,1.5,1.5,1.5C278.2,93,278.9,92.4,278.9,91.6
			z"/>
		<path class="st4" d="M278.6,103.2h4c0.7,0,1.2,0.5,1.2,1.2v4c0,0.7-0.5,1.2-1.2,1.2h-4c-0.7,0-1.2-0.5-1.2-1.2v-4
			C277.4,103.8,277.9,103.2,278.6,103.2z"/>
		<path class="st2" d="M278.9,104.4C278.9,104.1,278.8,104.8,278.9,104.4C278.8,104.8,278.8,104.6,278.9,104.4c0.1,0-0.3,0.4,0,0.2
			s-0.3,0.2,0,0c0.1,0,0.2-0.1-0.1,0c0.3-0.1-0.4,0,0,0l0,0h3.3c0.2,0,0.4,0,0.6,0s-0.3-0.1,0,0c-0.4-0.1-0.2-0.1-0.1,0
			c0.3,0.2-0.2-0.2,0,0s-0.2-0.2-0.1-0.1s0.1,0.3,0-0.1c0.1,0.3,0-0.4,0,0c0,0.7,0,1.3,0,1.9s0,1.4,0,2l0,0c0,0.3,0.1-0.3,0-0.1
			s0.2-0.3,0-0.1s0.2-0.2,0,0s0-0.1,0.1-0.1h-0.1c-0.1,0.1-0.1,0,0.1,0c-0.3,0.1,0.4,0,0.1,0h-3.1c-0.3,0-0.6,0-0.9,0h-0.1
			c-0.2,0,0.1,0,0.1,0c-0.3-0.1,0.3,0.2,0,0s0.2,0.2,0.1,0.1s0.1-0.1,0,0.1c0,0-0.1-0.1-0.1-0.2c0.1,0.2,0.1,0.3,0.1,0.2
			s0,0.4,0,0.1L278.9,104.4c-0.1-0.9-0.8-1.6-1.6-1.6s-1.5,0.7-1.5,1.5v2.1c0,0.7,0,1.4,0,2.1c0.1,1.2,0.9,2.2,2.1,2.5
			c0.4,0.1,0.7,0.1,1.1,0.1h2.8c0.2,0,0.5,0,0.7,0c1.2,0,2.2-0.8,2.6-1.9c0.2-0.8,0.2-1.7,0.1-2.5c0-0.8,0-1.5,0-2.3
			c0-1-0.5-1.9-1.4-2.4c-0.5-0.3-1.1-0.4-1.6-0.4h-3c-0.3,0-0.6,0-0.8,0c-1.4,0.1-2.6,1.3-2.6,2.7c0,0.8,0.7,1.5,1.5,1.5
			C278.1,105.9,278.8,105.2,278.9,104.4z"/>
		<path class="st4" d="M265.7,90.4h4c0.7,0,1.2,0.5,1.2,1.2v4c0,0.7-0.5,1.2-1.2,1.2h-4c-0.7,0-1.2-0.5-1.2-1.2v-4
			C264.5,90.9,265.1,90.4,265.7,90.4z"/>
		<path class="st2" d="M266,91.6C266,91.2,265.9,91.9,266,91.6C265.9,91.9,265.9,91.7,266,91.6c0.1,0-0.3,0.4,0,0.2s-0.3,0.2,0,0
			c0.1,0,0.2-0.1-0.1,0c0.3-0.1-0.4,0,0,0l0,0c0.2,0,0.5,0,0.8,0h3.2c0.3,0-0.3-0.1,0,0c-0.4-0.1-0.2-0.1-0.1,0c0.3,0.2-0.2-0.2,0,0
			s-0.2-0.2-0.1-0.1s0.1,0.3,0-0.1c0.1,0.3,0-0.3,0,0c0,0.7,0,1.3,0,1.9s0,1.4,0,2l0,0c0,0.3,0.1-0.3,0-0.1s0.2-0.3,0-0.1
			s0.2-0.3,0,0s0-0.1,0.1-0.1h-0.1c-0.1,0.1-0.1,0,0.1,0c-0.3,0.1,0.3,0,0,0s-0.4,0-0.6,0h-3.4c0,0,0,0-0.1,0c-0.2,0,0.1,0,0.1,0
			c-0.3-0.1,0.3,0.2,0,0s0.2,0.2,0.1,0.1s0.1-0.1,0,0.1c0,0-0.1-0.1-0.1-0.2c0.1,0.2,0.1,0.3,0.1,0.2s0,0.4,0,0.1L266,91.6
			c0-0.9-0.7-1.6-1.5-1.6s-1.5,0.7-1.5,1.5v2.1c0,0.7,0,1.4,0,2.1c0.1,1.2,0.9,2.2,2.1,2.5c0.4,0.1,0.7,0.1,1.1,0.1h3.5
			c1.2,0,2.2-0.8,2.6-1.9c0.2-0.8,0.2-1.7,0.1-2.5c0-0.8,0-1.5,0-2.3c0-1-0.5-1.9-1.4-2.4c-0.5-0.3-1.1-0.4-1.6-0.3h-3
			c-0.3,0-0.6,0-0.8,0c-1.4,0.1-2.6,1.3-2.6,2.7c0,0.8,0.7,1.5,1.5,1.5C265.3,93,265.9,92.4,266,91.6z"/>
		<path class="st4" d="M265.7,103.2h4c0.7,0,1.2,0.5,1.2,1.2v4c0,0.7-0.5,1.2-1.2,1.2h-4c-0.7,0-1.2-0.5-1.2-1.2v-4
			C264.5,103.8,265.1,103.2,265.7,103.2z"/>
		<path class="st2" d="M266,104.4C266,104.1,265.9,104.8,266,104.4C265.9,104.8,265.9,104.6,266,104.4c0.1,0-0.3,0.4,0,0.2
			s-0.3,0.2,0,0c0.1,0,0.2-0.1-0.1,0c0.3-0.1-0.4,0,0,0l0,0h3.3c0.2,0,0.4,0,0.6,0s-0.3-0.1,0,0c-0.4-0.1-0.2-0.1-0.1,0
			c0.3,0.2-0.2-0.2,0,0s-0.2-0.2-0.1-0.1s0.1,0.3,0-0.1c0.1,0.3,0-0.4,0,0c0,0.7,0,1.3,0,1.9s0,1.4,0,2l0,0c0,0.3,0.1-0.3,0-0.1
			s0.2-0.3,0-0.1s0.2-0.2,0,0s0-0.1,0.1-0.1h-0.1c-0.1,0.1-0.1,0,0.1,0c-0.3,0.1,0.3,0,0,0h-3.1c-0.3,0-0.6,0-0.9,0h-0.1
			c-0.2,0,0.1,0,0.1,0c-0.3-0.1,0.3,0.2,0,0s0.2,0.2,0.1,0.1s0.1-0.1,0,0.1c0,0-0.1-0.1-0.1-0.2c0.1,0.2,0.1,0.3,0.1,0.2
			s0,0.4,0,0.1L266,104.4c0-0.9-0.7-1.6-1.5-1.6s-1.5,0.7-1.5,1.5v2.1c0,0.7,0,1.4,0,2.1c0.1,1.2,0.9,2.2,2.1,2.5
			c0.4,0.1,0.7,0.1,1.1,0.1h2.8c0.2,0,0.5,0,0.7,0c1.2,0,2.2-0.8,2.6-1.9c0.2-0.8,0.2-1.7,0.1-2.5c0-0.8,0-1.5,0-2.3
			c0-1-0.5-1.9-1.4-2.4c-0.5-0.3-1.1-0.4-1.6-0.4h-3c-0.3,0-0.6,0-0.8,0c-1.4,0.1-2.6,1.3-2.6,2.7c0,0.8,0.7,1.5,1.5,1.5
			C265.3,105.8,265.9,105.2,266,104.4z"/>
		<path class="st4" d="M252.9,90.4h4c0.7,0,1.2,0.5,1.2,1.2v4c0,0.7-0.5,1.2-1.2,1.2h-4c-0.7,0-1.2-0.5-1.2-1.2v-4
			C251.7,90.9,252.2,90.4,252.9,90.4z"/>
		<path class="st2" d="M253.2,91.6C253.2,91.2,253.1,91.9,253.2,91.6C253,91.9,253.1,91.7,253.2,91.6c0.1,0-0.3,0.4,0,0.2
			s-0.3,0.2,0,0c0.1,0,0.3-0.1-0.1,0c0.3-0.1-0.4,0-0.1,0h0.1c0.2,0,0.5,0,0.8,0h3.2c0.3,0-0.3-0.1,0,0c-0.4-0.1-0.2-0.1-0.1,0
			c0.3,0.2-0.2-0.2,0,0s-0.2-0.2,0-0.1s0.1,0.3,0-0.1c0.1,0.3,0-0.3,0,0c0,0.7,0,1.3,0,1.9s0,1.4,0,2l0,0c0,0.3,0.1-0.3,0-0.1
			s0.2-0.3,0-0.1s0.2-0.3,0,0s0-0.1,0.1-0.1H257c-0.1,0.1-0.1,0,0.1,0c-0.3,0.1,0.3,0,0,0s-0.4,0-0.6,0H253c0,0,0,0-0.1,0
			c-0.2,0,0.1,0,0.1,0c-0.3-0.1,0.3,0.2,0,0s0.2,0.2,0.1,0.1s0.1-0.1,0,0.1l-0.1-0.2c0.1,0.2,0.1,0.3,0.1,0.2s0,0.4,0,0.1v-0.1
			L253.2,91.6c0-0.9-0.7-1.6-1.5-1.6s-1.5,0.7-1.5,1.5v2.1c0,0.7,0,1.4,0,2.1c0.1,1.2,0.9,2.2,2.1,2.5c0.4,0.1,0.7,0.1,1.1,0.1h3.5
			c1.2,0,2.2-0.8,2.6-1.9c0.2-0.8,0.2-1.7,0.1-2.5c0-0.8,0-1.5,0-2.3c0-1-0.5-1.9-1.4-2.4c-0.5-0.3-1.1-0.4-1.6-0.3h-3
			c-0.3,0-0.6,0-0.8,0c-1.4,0.1-2.6,1.3-2.6,2.7c0,0.8,0.7,1.5,1.5,1.5C252.4,93,253.1,92.4,253.2,91.6z"/>
		<path class="st4" d="M252.9,103.2h4c0.7,0,1.2,0.5,1.2,1.2v4c0,0.7-0.5,1.2-1.2,1.2h-4c-0.7,0-1.2-0.5-1.2-1.2v-4
			C251.7,103.8,252.2,103.2,252.9,103.2z"/>
		<path class="st2" d="M253.2,104.4C253.2,104.1,253.1,104.8,253.2,104.4C253,104.8,253.1,104.6,253.2,104.4c0.1,0-0.3,0.4,0,0.2
			s-0.3,0.2,0,0c0.1,0,0.3-0.1-0.1,0c0.3-0.1-0.4,0-0.1,0c0,0,0,0,0.1,0h3.3c0.2,0,0.4,0,0.6,0s-0.3-0.1,0,0c-0.4-0.1-0.2-0.1-0.1,0
			c0.3,0.2-0.2-0.2,0,0s-0.2-0.2,0-0.1s0.1,0.3,0-0.1c0.1,0.3,0-0.4,0,0c0,0.7,0,1.3,0,1.9s0,1.4,0,2l0,0c0,0.3,0.1-0.3,0-0.1
			s0.2-0.3,0-0.1s0.2-0.2,0,0s0-0.1,0.1-0.1h-0.1c-0.1,0.1-0.1,0,0.1,0c-0.3,0.1,0.3,0,0,0h-3.1c-0.3,0-0.6,0-0.9,0l0,0
			c-0.2,0,0.1,0,0.1,0c-0.3-0.1,0.3,0.2,0,0s0.2,0.2,0.1,0.1s0.1-0.1,0,0.1l-0.1-0.2c0.1,0.2,0.1,0.3,0.1,0.2s0,0.4,0,0.1v-0.1
			L253.2,104.4c0-0.9-0.7-1.6-1.5-1.6s-1.5,0.7-1.5,1.5v2.1c0,0.7,0,1.4,0,2.1c0.1,1.2,0.9,2.2,2.1,2.5c0.4,0.1,0.7,0.1,1.1,0.1h2.8
			c0.2,0,0.5,0,0.7,0c1.2,0,2.2-0.8,2.6-1.9c0.2-0.8,0.2-1.7,0.1-2.5c0-0.8,0-1.5,0-2.3c0-1-0.5-1.9-1.4-2.4
			c-0.5-0.3-1.1-0.4-1.6-0.4h-3c-0.3,0-0.6,0-0.8,0c-1.4,0.1-2.6,1.3-2.6,2.7c0,0.8,0.7,1.5,1.5,1.5
			C252.4,105.8,253.1,105.2,253.2,104.4z"/>
		<path class="st4" d="M285.4,73.8h-4.8V69c0-0.9-0.7-1.6-1.6-1.6h-3.2c-0.9,0-1.6,0.7-1.6,1.6v4.8h-12.9V69c0-0.9-0.7-1.6-1.6-1.6
			h-3.2c-0.9,0-1.6,0.7-1.6,1.6v4.8h-4.8c-2.7,0-4.8,2.2-4.8,4.8l0,0v4.8h45v-4.8C290.2,76,288.1,73.8,285.4,73.8L285.4,73.8z"/>
		<path class="st2" d="M285.4,72.3h-4.8l1.5,1.5c0-1.6,0.1-3.2,0-4.8c0-1.3-0.8-2.5-2.1-3c-0.9-0.2-1.7-0.3-2.6-0.2
			c-0.9-0.1-1.8,0-2.6,0.2c-1.3,0.5-2.1,1.7-2.1,3c-0.1,1.6,0,3.2,0,4.8l1.5-1.5h-12.9l1.5,1.5c0-1.6,0.1-3.2,0-4.8
			c0-1.3-0.8-2.5-2.1-3c-0.9-0.2-1.7-0.3-2.6-0.2c-0.9-0.1-1.8,0-2.6,0.2c-1.3,0.5-2.1,1.7-2.1,3c-0.1,1.6,0,3.2,0,4.8l1.5-1.5
			c-3.1,0-6.9-0.6-9.3,1.9s-1.9,6.1-1.9,9.3c0,0.8,0.7,1.5,1.5,1.5h45c0.8,0,1.5-0.7,1.5-1.5c0-1.6,0-3.2,0-4.8
			C291.7,75.2,288.9,72.4,285.4,72.3c-1.9-0.1-1.9,2.9,0,3c4.2,0.2,3.3,5.3,3.3,8.2l1.5-1.5h-45l1.5,1.5v-3.4c0-1.4-0.1-2.7,1-3.8
			s2.3-1,3.7-1h3.5c0.8,0,1.5-0.7,1.5-1.5V70c0-0.2-0.1-0.9,0.1-1.1s1.4,0,1.6,0s1.4-0.2,1.6,0s0.1,0.8,0.1,1v3.9
			c0,0.8,0.7,1.5,1.5,1.5h12.9c0.8,0,1.5-0.7,1.5-1.5V70c0-0.2-0.1-0.9,0.1-1.1s1.4,0,1.6,0s1.4-0.2,1.6,0s0.1,0.8,0.1,1v3.9
			c0,0.8,0.7,1.5,1.5,1.5h4.8c0.8,0,1.5-0.7,1.5-1.5S286.3,72.3,285.4,72.3L285.4,72.3z"/>
		<circle class="st1" cx="305.4" cy="62.4" r="12.5"/>
		<path class="st2" d="M316.3,62.4c0,6.1-4.9,11-11,11s-11-4.9-11-11s4.9-11,11-11c0.7,0,1.4,0.1,2,0.2
			C312.5,52.6,316.2,57.1,316.3,62.4c0,0.8,0.7,1.5,1.5,1.5s1.5-0.7,1.5-1.5c0-7.7-6.2-14-14-14s-14,6.2-14,14s6.2,14,14,14
			c0.9,0,1.8-0.1,2.7-0.3c6.5-1.3,11.3-7,11.3-13.7c0-0.8-0.7-1.5-1.5-1.5C317,60.9,316.3,61.6,316.3,62.4z"/>
		<g class="st5">
			<path class="st2" d="M306.4,56.6v4.6h4.6v2.1h-4.6V68h-2.1v-4.6h-4.6v-2.1h4.6v-4.6H306.4z"/>
		</g>
		
			<linearGradient id="SVGID_3_" gradientUnits="userSpaceOnUse" x1="108.2" y1="384.1" x2="266.8" y2="384.1" gradientTransform="matrix(1 0 0 1 0 -120)">
			<stop  offset="0" style="stop-color:#0089D1"/>
			<stop  offset="1" style="stop-color:#05B3FE"/>
		</linearGradient>
		<circle class="st6" cx="187.5" cy="264.1" r="78.8"/>
		<rect x="174.9" y="228.2" class="st2" width="1.9" height="1.9"/>
		<rect x="205.9" y="228.2" class="st2" width="1.9" height="1.9"/>
		<path class="st2" d="M221.4,228.2h-11.6v13.6h13.6v-13.6H221.4z M221.4,232.1v7.7h-9.7v-9.7h9.7V232.1z"/>
		<polygon class="st2" points="173,234.1 173,232.1 171,232.1 171,230.2 169.1,230.2 169.1,228.2 167.2,228.2 167.2,230.2 
			167.2,232.1 169.1,232.1 169.1,234.1 171,234.1 		"/>
		<polygon class="st2" points="188.5,232.1 188.5,230.2 188.5,228.2 186.5,228.2 184.6,228.2 182.7,228.2 182.7,230.2 184.6,230.2 
			186.5,230.2 186.5,232.1 186.5,234.1 188.5,234.1 		"/>
		<polygon class="st2" points="192.3,232.1 194.3,232.1 194.3,230.2 194.3,228.2 192.3,228.2 192.3,230.2 190.4,230.2 190.4,232.1 
			190.4,234.1 192.3,234.1 		"/>
		<polygon class="st2" points="215.6,232.1 213.6,232.1 213.6,234.1 213.6,236 213.6,237.9 215.6,237.9 217.5,237.9 219.4,237.9 
			219.4,236 219.4,234.1 219.4,232.1 217.5,232.1 		"/>
		<rect x="167.2" y="234.1" class="st2" width="1.9" height="1.9"/>
		<polygon class="st2" points="159.4,237.9 161.4,237.9 161.4,236 161.4,234.1 161.4,232.1 159.4,232.1 157.5,232.1 155.6,232.1 
			155.6,234.1 155.6,236 155.6,237.9 157.5,237.9 		"/>
		<path class="st2" d="M176.9,237.9v1.9h1.9v1.9h-1.9v1.9H175v1.9h1.9v1.9H173v3.9h1.9v-1.9h1.9v1.9h-1.9v1.9h1.9v1.9h5.8v3.9h1.9
			v-3.9h1.9v-3.9h-1.9v1.9h-1.9v-1.9h-3.9v-1.9h1.9v-1.9h-1.9v-1.9h1.9v-1.9h3.9v-3.9h1.9v1.9h1.9v-1.9h1.9V236h-1.9v1.9h-5.8V236
			h3.9v-1.9h-5.8v3.9h-1.9v-5.8h1.9v-3.9h-1.9v1.9h-1.9v1.9h-1.9v3.9h1.9v1.9H176.9z M182.7,239.9v1.9h-1.9v-1.9H182.7z"/>
		<rect x="198.1" y="236" class="st2" width="1.9" height="1.9"/>
		<polygon class="st2" points="174.9,237.9 174.9,236 173,236 173,237.9 173,239.9 174.9,239.9 		"/>
		<path class="st2" d="M155.6,241.8h9.7v-13.6h-13.6v13.6H155.6L155.6,241.8z M153.6,237.9v-7.7h9.7v9.7h-9.7V237.9z"/>
		<rect x="171" y="239.9" class="st2" width="1.9" height="1.9"/>
		<rect x="174.9" y="239.9" class="st2" width="1.9" height="1.9"/>
		<polygon class="st2" points="194.3,241.8 194.3,243.7 196.2,243.7 196.2,241.8 196.2,239.9 196.2,237.9 196.2,236 198.1,236 
			198.1,234.1 200.1,234.1 200.1,236 202,236 202,237.9 204,237.9 205.9,237.9 205.9,239.9 205.9,241.8 207.8,241.8 207.8,239.9 
			207.8,237.9 207.8,236 205.9,236 204,236 204,234.1 205.9,234.1 205.9,232.1 204,232.1 202,232.1 202,230.2 202,228.2 
			200.1,228.2 200.1,230.2 198.1,230.2 198.1,228.2 196.2,228.2 196.2,230.2 196.2,232.1 196.2,234.1 194.3,234.1 194.3,236 
			194.3,237.9 192.3,237.9 192.3,239.9 194.3,239.9 		"/>
		<rect x="202" y="239.9" class="st2" width="1.9" height="1.9"/>
		<polygon class="st2" points="190.4,243.7 192.3,243.7 192.3,241.8 192.3,239.9 190.4,239.9 190.4,241.8 		"/>
		<polygon class="st2" points="200.1,241.8 200.1,239.9 198.1,239.9 198.1,241.8 198.1,243.7 196.2,243.7 196.2,245.7 198.1,245.7 
			200.1,245.7 200.1,243.7 		"/>
		<rect x="204" y="241.8" class="st2" width="1.9" height="1.9"/>
		<rect x="151.7" y="243.7" class="st2" width="1.9" height="1.9"/>
		<path class="st2" d="M194.3,243.7h-1.9v1.9h-3.9v-1.9h-1.9v1.9h-1.9v1.9h-1.9v3.9h1.9v-1.9h1.9v1.9h5.8v-3.9h1.9L194.3,243.7
			L194.3,243.7z M190.4,249.6h-1.9v-1.9h1.9V249.6z"/>
		<rect x="202" y="243.7" class="st2" width="1.9" height="1.9"/>
		<rect x="209.8" y="243.7" class="st2" width="1.9" height="1.9"/>
		<rect x="215.6" y="243.7" class="st2" width="1.9" height="1.9"/>
		<polygon class="st2" points="219.4,243.7 219.4,245.7 219.4,247.6 221.4,247.6 221.4,245.7 223.3,245.7 223.3,243.7 221.4,243.7 
					"/>
		<polygon class="st2" points="159.4,247.6 159.4,245.7 159.4,243.7 157.5,243.7 155.6,243.7 155.6,245.7 155.6,247.6 157.5,247.6 
					"/>
		<rect x="180.7" y="245.7" class="st2" width="1.9" height="1.9"/>
		<polygon class="st2" points="167.2,249.6 167.2,251.5 169.1,251.5 169.1,249.6 171,249.6 171,247.6 171,245.7 173,245.7 
			173,243.7 171,243.7 171,241.8 169.1,241.8 169.1,239.9 167.2,239.9 167.2,241.8 167.2,243.7 169.1,243.7 169.1,245.7 
			167.2,245.7 167.2,243.7 165.2,243.7 163.3,243.7 161.4,243.7 161.4,245.7 161.4,247.6 163.3,247.6 163.3,245.7 165.2,245.7 
			165.2,247.6 163.3,247.6 163.3,249.6 165.2,249.6 		"/>
		<polygon class="st2" points="213.6,247.6 213.6,245.7 211.7,245.7 211.7,247.6 211.7,249.6 213.6,249.6 		"/>
		<polygon class="st2" points="165.2,253.4 167.2,253.4 167.2,251.5 165.2,251.5 163.3,251.5 163.3,249.6 161.4,249.6 159.4,249.6 
			159.4,251.5 161.4,251.5 161.4,253.4 163.3,253.4 		"/>
		<polygon class="st2" points="171,253.4 171,255.4 171,257.3 169.1,257.3 169.1,259.2 171,259.2 171,261.2 173,261.2 174.9,261.2 
			176.9,261.2 178.8,261.2 178.8,259.2 176.9,259.2 174.9,259.2 174.9,257.3 173,257.3 173,255.4 173,253.4 173,251.5 171,251.5 		
			"/>
		<path class="st2" d="M219.4,251.5v-1.9h-1.9v1.9h-1.9v-1.9h-1.9v1.9h-1.9v-1.9h-3.9v-5.8H206v7.8h1.9v1.9h1.9v3.9H204v-1.9h3.9
			v-1.9H206v-1.9h-2v1.9h-2v1.9h-1.9v-1.9h1.9v-7.7h-1.9v1.9h-5.8v1.9h5.8v1.9h-5.8v1.9h-1.9v1.9h3.9v-1.9h1.9v5.8h1.9v-1.9h1.9v1.9
			h13.6v-3.9h1.9v-1.9h1.9v1.9h-1.9v1.9h1.9v1.9h-3.9v3.9h1.9v-1.9h1.9v1.9h-1.9v1.9h1.9v2h1.9v-2h1.9v-3.9h-1.9v-1.9h1.9v-1.9h-1.9
			v-1.9h1.9v-3.9H219.4L219.4,251.5z M213.6,257.3h-1.9v-1.9h1.9V257.3z"/>
		<polygon class="st2" points="190.4,253.4 188.5,253.4 188.5,255.4 188.5,257.3 188.5,259.2 188.5,261.2 190.4,261.2 190.4,263.1 
			192.3,263.1 192.3,261.2 194.3,261.2 194.3,263.1 196.2,263.1 196.2,261.2 196.2,259.2 194.3,259.2 194.3,257.3 192.3,257.3 
			192.3,255.4 190.4,255.4 		"/>
		<rect x="151.7" y="255.4" class="st2" width="1.9" height="1.9"/>
		<rect x="180.7" y="259.2" class="st2" width="1.9" height="1.9"/>
		<rect x="184.6" y="259.2" class="st2" width="1.9" height="1.9"/>
		<polygon class="st2" points="161.4,263.1 163.3,263.1 163.3,261.2 161.4,261.2 159.4,261.2 157.5,261.2 157.5,263.1 159.4,263.1 
					"/>
		<rect x="186.5" y="261.2" class="st2" width="1.9" height="1.9"/>
		<rect x="163.3" y="263.1" class="st2" width="1.9" height="1.9"/>
		<rect x="151.7" y="265" class="st2" width="1.9" height="1.9"/>
		<rect x="190.4" y="265" class="st2" width="1.9" height="1.9"/>
		<polygon class="st2" points="213.6,265 213.6,263.1 213.6,261.2 211.7,261.2 209.8,261.2 209.8,263.1 207.8,263.1 207.8,265 
			209.8,265 209.8,267 211.7,267 211.7,268.9 213.6,268.9 215.6,268.9 215.6,267 217.5,267 217.5,265 215.6,265 		"/>
		<polygon class="st2" points="155.6,267 153.6,267 153.6,268.9 151.7,268.9 151.7,270.9 153.6,270.9 155.6,270.9 155.6,268.9 		"/>
		<polygon class="st2" points="180.7,268.9 182.7,268.9 182.7,270.9 182.7,272.8 184.6,272.8 184.6,270.9 186.5,270.9 186.5,272.8 
			188.5,272.8 188.5,270.9 190.4,270.9 190.4,268.9 190.4,267 188.5,267 188.5,268.9 186.5,268.9 186.5,267 188.5,267 188.5,265 
			186.5,265 184.6,265 182.7,265 180.7,265 178.8,265 178.8,267 180.7,267 		"/>
		<polygon class="st2" points="204,267 205.9,267 205.9,265 205.9,263.1 205.9,261.2 204,261.2 202,261.2 202,263.1 200.1,263.1 
			200.1,261.2 198.1,261.2 198.1,263.1 198.1,265 200.1,265 202,265 202,267 202,268.9 204,268.9 		"/>
		<polygon class="st2" points="207.8,268.9 205.9,268.9 205.9,270.9 207.8,270.9 209.8,270.9 209.8,268.9 209.8,267 207.8,267 		"/>
		<rect x="221.4" y="267" class="st2" width="1.9" height="1.9"/>
		<rect x="178.8" y="268.9" class="st2" width="1.9" height="1.9"/>
		<polygon class="st2" points="192.3,270.9 194.3,270.9 194.3,268.9 194.3,267 192.3,267 192.3,268.9 		"/>
		<rect x="215.6" y="268.9" class="st2" width="1.9" height="1.9"/>
		<rect x="163.3" y="270.9" class="st2" width="1.9" height="1.9"/>
		<polygon class="st2" points="165.2,274.7 163.3,274.7 163.3,276.7 165.2,276.7 165.2,278.6 167.2,278.6 169.1,278.6 169.1,276.7 
			169.1,274.7 167.2,274.7 167.2,272.8 165.2,272.8 		"/>
		<polygon class="st2" points="180.7,274.7 180.7,276.7 182.7,276.7 184.6,276.7 184.6,274.7 182.7,274.7 182.7,272.8 180.7,272.8 
			178.8,272.8 178.8,270.9 176.9,270.9 176.9,272.8 176.9,274.7 174.9,274.7 174.9,276.7 176.9,276.7 178.8,276.7 178.8,274.7 		"/>
		<rect x="184.6" y="272.8" class="st2" width="1.9" height="1.9"/>
		<polygon class="st2" points="190.4,274.7 190.4,276.7 192.3,276.7 192.3,274.7 192.3,272.8 190.4,272.8 188.5,272.8 188.5,274.7 
					"/>
		<path class="st2" d="M209.8,274.7h-3.9v-1.9H202v-3.9h-1.9v1.9h-1.9v-1.9h-1.9v5.8h-1.9v1.9h1.9v1.9h1.9v1.9h1.9v-3.9h-1.9v-1.9
			h1.9v1.9h1.9v-1.9h2v3.9h3.9v-1.9h1.9v1.9h1.9v3.9h-1.9v-3.9h-1.9v1.9H202v1.9h3.9v5.8H202v1.9h3.9v1.9h-7.7V290h1.9v-1.9h-5.8
			v1.9h1.9v3.9h-3.9v1.9h1.9v3.9h1.9V298h1.9v-2h1.9v2H198v1.9h5.9V298h1.9v-2h5.8v-3.9h1.9v3.9h-2v2h1.9v1.9h9.7V298h-3.9v-2h-1.9
			v-1.9h1.9v-1.9h-1.9v-1.9h-1.9v-9.7h-1.9v-1.9h3.9v-1.9h-1.9v-1.9h1.9v1.9h1.9v3.9h1.9v-1.9h1.9v-1.9h-1.9V275h1.9v-1.9h-9.7v3.9
			h-1.9v-3.9h1.9v-1.9h-3.9v3.5H209.8z M202,296v-1.9h2v1.9H202z M209.8,294.1h-1.9v-1.9h1.9V294.1z M213.6,286.3v3.9h-5.8v-5.8h5.8
			V286.3z"/>
		<rect x="171" y="276.7" class="st2" width="1.9" height="1.9"/>
		<polygon class="st2" points="180.7,276.7 178.8,276.7 178.8,278.6 178.8,280.5 180.7,280.5 180.7,278.6 		"/>
		<rect x="151.7" y="278.6" class="st2" width="1.9" height="1.9"/>
		<path class="st2" d="M161.4,280.5v-1.9h1.9v-1.9h-1.9v-1.9h1.9v-1.9h-1.9V271h1.9v-1.9h3.9v3.9h3.8v-1.9h2v3.9h1.9v-5.8h3.9V267
			h-3.9v-2h-5.8v-3.9h-1.9v-3.8h1.9v-1.9h-7.8v-1.9h-3.9v-1.9h-1.9v-3.9h-3.9v1.9h1.9v3.9h1.9v5.8h-3.9v3.9h1.9v1.9h1.9v2h1.9v1.9
			h1.9v-2h1.9v-2h-3.9v-1.9h-1.9v-1.9h1.9v-5.8h1.9v1.9h5.8v1.9h-2v1.9h1.9v1.9h1.9v1.9h-1.9v2h-3.9v1.9h-1.9v1.9H155v3.9h-3.9v1.9
			h3.9v1.9h1.9v3.9h1.9v-1.9L161.4,280.5z M171,267v1.9h-1.9V267H171z M157.4,274.7v-1.9h1.9v3.9h-1.9V274.7z"/>
		<rect x="163.3" y="278.6" class="st2" width="1.9" height="1.9"/>
		<polygon class="st2" points="155.6,280.5 153.6,280.5 153.6,282.5 151.7,282.5 151.7,284.4 153.6,284.4 155.6,284.4 157.5,284.4 
			157.5,282.5 155.6,282.5 		"/>
		<rect x="161.4" y="280.5" class="st2" width="1.9" height="1.9"/>
		<rect x="165.2" y="280.5" class="st2" width="1.9" height="1.9"/>
		<polygon class="st2" points="169.1,282.5 171,282.5 171,280.5 171,278.6 169.1,278.6 169.1,280.5 		"/>
		<polygon class="st2" points="176.9,280.5 176.9,278.6 174.9,278.6 174.9,280.5 174.9,282.5 176.9,282.5 		"/>
		<rect x="180.7" y="280.5" class="st2" width="1.9" height="1.9"/>
		<rect x="159.4" y="282.5" class="st2" width="1.9" height="1.9"/>
		<rect x="163.3" y="282.5" class="st2" width="1.9" height="1.9"/>
		<rect x="171" y="282.5" class="st2" width="1.9" height="1.9"/>
		<rect x="182.7" y="282.5" class="st2" width="1.9" height="1.9"/>
		<polygon class="st2" points="200.1,284.4 200.1,286.3 202,286.3 202,284.4 202,282.5 200.1,282.5 		"/>
		<polygon class="st2" points="221.4,284.4 221.4,286.3 219.4,286.3 219.4,284.4 219.4,282.5 217.5,282.5 217.5,284.4 217.5,286.3 
			217.5,288.3 219.4,288.3 219.4,290.2 219.4,292.1 221.4,292.1 221.4,294.1 223.3,294.1 223.3,292.1 223.3,290.2 221.4,290.2 
			221.4,288.3 223.3,288.3 223.3,286.3 223.3,284.4 223.3,282.5 223.3,280.5 221.4,280.5 221.4,282.5 		"/>
		<polygon class="st2" points="176.9,284.4 174.9,284.4 174.9,286.3 174.9,288.3 174.9,290.2 176.9,290.2 176.9,288.3 176.9,286.3 
			178.8,286.3 178.8,284.4 		"/>
		<path class="st2" d="M161.4,286.3h-9.7v13.5h13.6v-13.5H161.4z M163.3,290.2v7.8h-9.7v-9.7h9.7V290.2z"/>
		<polygon class="st2" points="171,288.3 171,286.3 171,284.4 169.1,284.4 169.1,282.5 167.2,282.5 167.2,284.4 167.2,286.3 
			167.2,288.3 167.2,290.2 169.1,290.2 169.1,288.3 		"/>
		<rect x="209.8" y="286.3" class="st2" width="1.9" height="1.9"/>
		<polygon class="st2" points="173,288.3 171,288.3 171,290.2 169.1,290.2 169.1,292.1 171,292.1 173,292.1 173,290.2 		"/>
		<polygon class="st2" points="157.5,290.2 155.6,290.2 155.6,292.1 155.6,294.1 155.6,296 157.5,296 159.4,296 161.4,296 
			161.4,294.1 161.4,292.1 161.4,290.2 159.4,290.2 		"/>
		<polygon class="st2" points="184.6,290.2 186.5,290.2 188.5,290.2 188.5,292.1 188.5,294.1 190.4,294.1 190.4,292.1 190.4,290.2 
			192.3,290.2 192.3,288.3 194.3,288.3 194.3,286.3 196.2,286.3 198.1,286.3 198.1,284.4 196.2,284.4 196.2,282.5 198.1,282.5 
			198.1,280.5 196.2,280.5 196.2,278.6 194.3,278.6 194.3,280.5 192.3,280.5 190.4,280.5 190.4,278.6 190.4,276.7 188.5,276.7 
			188.5,278.6 186.5,278.6 184.6,278.6 184.6,280.5 186.5,280.5 188.5,280.5 188.5,282.5 186.5,282.5 186.5,284.4 188.5,284.4 
			190.4,284.4 190.4,286.3 190.4,288.3 188.5,288.3 188.5,286.3 186.5,286.3 186.5,288.3 184.6,288.3 184.6,286.3 182.7,286.3 
			182.7,284.4 180.7,284.4 180.7,286.3 178.8,286.3 178.8,288.3 178.8,290.2 180.7,290.2 180.7,292.1 178.8,292.1 178.8,294.1 
			176.9,294.1 176.9,292.1 174.9,292.1 173,292.1 173,294.1 173,296 174.9,296 174.9,298 174.9,299.9 176.9,299.9 176.9,298 
			178.8,298 180.7,298 182.7,298 182.7,296 182.7,294.1 184.6,294.1 184.6,292.1 		"/>
		<rect x="192.3" y="290.2" class="st2" width="1.9" height="1.9"/>
		<polygon class="st2" points="167.2,294.1 167.2,296 169.1,296 169.1,298 167.2,298 167.2,299.9 169.1,299.9 171,299.9 173,299.9 
			173,298 171,298 171,296 171,294.1 169.1,294.1 169.1,292.1 167.2,292.1 		"/>
		<polygon class="st2" points="186.5,294.1 184.6,294.1 184.6,296 186.5,296 188.5,296 188.5,294.1 		"/>
		<polygon class="st2" points="188.5,296 188.5,298 188.5,299.9 190.4,299.9 190.4,298 192.3,298 192.3,296 190.4,296 		"/>
		<rect x="184.6" y="298" class="st2" width="1.9" height="1.9"/>
		<rect x="207.8" y="298" class="st2" width="1.9" height="1.9"/>
	</g>
</g>
</svg>
