<?xml version="1.0" encoding="UTF-8"?>
<svg id="_圖層_2" xmlns="http://www.w3.org/2000/svg" version="1.1" viewBox="0 0 97.8 97.8">
  <!-- Generator: Adobe Illustrator 29.3.1, SVG Export Plug-In . SVG Version: 2.1.0 Build 151)  -->
  <defs>
    <style>
      .st0 {
        isolation: isolate;
      }

      .st1 {
        fill: #efc048;
      }
    </style>
  </defs>
  <circle class="st1" cx="48.9" cy="48.9" r="48.9"/>
  <g class="st0">
    <g class="st0">
      <path d="M19.6,35.8l2-2.4c1.3,1.2,3,2,4.5,2s2.8-.8,2.8-2-1.1-1.7-2.7-2.4l-2.4-1c-1.8-.7-3.6-2.2-3.6-4.8s2.5-5.1,6.1-5.1,4.1.8,5.6,2.3l-1.8,2.2c-1.1-.9-2.3-1.5-3.8-1.5s-2.6.7-2.6,1.9,1.3,1.7,2.8,2.3l2.3,1c2.2.9,3.6,2.3,3.6,4.8s-2.4,5.4-6.5,5.4-4.8-.9-6.5-2.6Z"/>
    </g>
    <g class="st0">
      <path d="M39.1,23.3h-5v-3h13.6v3h-5v14.8h-3.6v-14.8Z"/>
      <path d="M50.6,20.3h10.9v3h-7.3v4.1h6.2v3h-6.2v4.8h7.6v3h-11.2v-17.8Z"/>
      <path d="M65.4,20.3h5.8c3.9,0,7,1.4,7,5.6s-3,5.9-6.9,5.9h-2.4v6.3h-3.6v-17.8ZM71,29c2.4,0,3.6-1,3.6-3.1s-1.3-2.8-3.7-2.8h-2v5.8h2.1Z"/>
    </g>
  </g>
  <g class="st0">
    <g class="st0">
      <path d="M26.2,63.3c0-10.2,4-15.2,10-15.2s10,5,10,15.2-4,15.5-10,15.5-10-5.3-10-15.5ZM40.7,63.3c0-8.3-1.9-10.7-4.4-10.7s-4.5,2.4-4.5,10.7,1.9,10.9,4.5,10.9,4.4-2.6,4.4-10.9Z"/>
      <path d="M71.6,70.6h-3.5v7.7h-5.5v-7.7h-12.6v-4l11-17.9h7v17.4h3.5v4.5ZM62.6,66.1v-6c0-1.7.2-4.4.2-6.1h-.2c-.7,1.6-1.5,3.2-2.4,4.8l-4.6,7.4h6.9Z"/>
    </g>
  </g>
</svg>