<?xml version="1.0" encoding="UTF-8"?>
<svg id="_圖層_2" xmlns="http://www.w3.org/2000/svg" version="1.1" viewBox="0 0 56.3 56.3">
  <!-- Generator: Adobe Illustrator 29.3.1, SVG Export Plug-In . SVG Version: 2.1.0 Build 151)  -->
  <defs>
    <style>
      .st0 {
        fill: #fff;
      }

      .st1 {
        isolation: isolate;
      }

      .st2 {
        fill: #efc048;
      }
    </style>
  </defs>
  <g>
    <circle class="st0" cx="28.2" cy="28.2" r="26.7"/>
    <path class="st2" d="M28.2,56.3C12.6,56.3,0,43.7,0,28.2S12.6,0,28.2,0s28.2,12.6,28.2,28.2-12.6,28.2-28.2,28.2ZM28.2,3C14.3,3,3,14.3,3,28.2s11.3,25.2,25.2,25.2,25.2-11.3,25.2-25.2S42,3,28.2,3Z"/>
  </g>
  <g class="st1">
    <g class="st1">
      <path d="M12.4,28.1c0-7.2,2.8-10.7,7-10.7s7,3.5,7,10.7-2.8,10.8-7,10.8-7-3.7-7-10.8ZM22.5,28.1c0-5.8-1.3-7.5-3.1-7.5s-3.1,1.7-3.1,7.5,1.3,7.6,3.1,7.6,3.1-1.8,3.1-7.6Z"/>
      <path d="M43.9,33.2h-2.5v5.4h-3.8v-5.4h-8.8v-2.8l7.7-12.5h4.9v12.2h2.5v3.1ZM37.6,30v-4.2c0-1.2.1-3.1.2-4.3h-.1c-.5,1.1-1.1,2.2-1.7,3.4l-3.2,5.2h4.8Z"/>
    </g>
  </g>
</svg>