<?xml version="1.0" encoding="UTF-8"?>
<svg id="_圖層_2" xmlns="http://www.w3.org/2000/svg" version="1.1" viewBox="0 0 56.3 56.3">
  <!-- Generator: Adobe Illustrator 29.3.1, SVG Export Plug-In . SVG Version: 2.1.0 Build 151)  -->
  <defs>
    <style>
      .st0 {
        fill: #fff;
      }

      .st1 {
        isolation: isolate;
      }

      .st2 {
        fill: #efc048;
      }
    </style>
  </defs>
  <g>
    <circle class="st0" cx="28.2" cy="28.2" r="26.7"/>
    <path class="st2" d="M28.2,56.3C12.6,56.3,0,43.7,0,28.2S12.6,0,28.2,0s28.2,12.6,28.2,28.2-12.6,28.2-28.2,28.2ZM28.2,3C14.3,3,3,14.3,3,28.2s11.3,25.2,25.2,25.2,25.2-11.3,25.2-25.2S42,3,28.2,3Z"/>
  </g>
  <g class="st1">
    <g class="st1">
      <path d="M12.8,28.1c0-7.2,2.8-10.7,7-10.7s7,3.5,7,10.7-2.8,10.8-7,10.8-7-3.7-7-10.8ZM22.9,28.1c0-5.8-1.3-7.5-3.1-7.5s-3.1,1.7-3.1,7.5,1.3,7.6,3.1,7.6,3.1-1.8,3.1-7.6Z"/>
      <path d="M29.3,36.1l1.9-2.6c1.2,1.1,2.6,2.1,4.6,2.1s3.7-1.4,3.7-3.8-1.4-3.8-3.5-3.8-1.9.3-3.1,1.1l-1.9-1.2.6-10.1h11.1v3.4h-7.5l-.4,4.4c.8-.4,1.5-.6,2.5-.6,3.5,0,6.4,2.1,6.4,6.6s-3.4,7.3-7.3,7.3-5.5-1.3-7-2.8Z"/>
    </g>
  </g>
</svg>