<?xml version="1.0" encoding="UTF-8"?>
<svg id="_圖層_2" xmlns="http://www.w3.org/2000/svg" version="1.1" viewBox="0 0 56.3 56.3">
  <!-- Generator: Adobe Illustrator 29.3.1, SVG Export Plug-In . SVG Version: 2.1.0 Build 151)  -->
  <defs>
    <style>
      .st0 {
        fill: #fff;
      }

      .st1 {
        isolation: isolate;
      }

      .st2 {
        fill: #efc048;
      }
    </style>
  </defs>
  <g>
    <circle class="st0" cx="28.2" cy="28.2" r="26.7"/>
    <path class="st2" d="M28.2,56.3C12.6,56.3,0,43.7,0,28.2S12.6,0,28.2,0s28.2,12.6,28.2,28.2-12.6,28.2-28.2,28.2ZM28.2,3C14.3,3,3,14.3,3,28.2s11.3,25.2,25.2,25.2,25.2-11.3,25.2-25.2S42,3,28.2,3Z"/>
  </g>
  <g class="st1">
    <g class="st1">
      <path d="M12.8,28.1c0-7.2,2.8-10.7,7-10.7s7,3.5,7,10.7-2.8,10.8-7,10.8-7-3.7-7-10.8ZM22.9,28.1c0-5.8-1.3-7.5-3.1-7.5s-3.1,1.7-3.1,7.5,1.3,7.6,3.1,7.6,3.1-1.8,3.1-7.6Z"/>
      <path d="M29.3,36l1.9-2.6c1.2,1.2,2.7,2.1,4.6,2.1s3.5-1,3.5-2.9-1.2-3.3-5.7-3.3v-3c3.8,0,5-1.3,5-3.2s-1-2.6-2.8-2.6c-1.5,0-2.7.7-3.9,1.8l-2.1-2.5c1.8-1.6,3.8-2.5,6.2-2.5,4,0,6.7,2,6.7,5.5s-1.3,3.9-3.5,4.7h0c2.4.8,4.1,2.5,4.1,5.2s-3.3,6-7.3,6-5.5-1.2-6.9-2.9Z"/>
    </g>
  </g>
</svg>