<svg xmlns="http://www.w3.org/2000/svg" viewBox="0 0 85.35 19.23"><defs><style>.cls-1{fill:#759e56}.cls-2{fill:#638749}</style></defs><g id="圖層_2" data-name="圖層 2"><g id="_0" data-name="0"><path class="cls-1" d="M28.33 9.91a6.37 6.37 0 00.15-1.39 7.33 7.33 0 00-7.59-7 7.73 7.73 0 00-6.62 3.57 6.8 6.8 0 00-3.84-1.16 6.28 6.28 0 00-6.51 6V10A4.78 4.78 0 000 14.57a4.87 4.87 0 005 4.66h23.12a4.88 4.88 0 005-4.66 4.86 4.86 0 00-4.79-4.66z"/><path class="cls-2" d="M51.9 9.14a6.94 6.94 0 00.16-1.52c0-4.21-3.68-7.62-8.23-7.62a8.35 8.35 0 00-7.16 3.87 7.44 7.44 0 00-4.17-1.26 6.79 6.79 0 00-7 6.52v.13a5.16 5.16 0 00-4.25 4.92 5.27 5.27 0 005.44 5.05h25a5.27 5.27 0 005.45-5.05 5.26 5.26 0 00-5.24-5.04z"/><path class="cls-1" d="M62.77 9.14a6.94 6.94 0 00.16-1.52C62.93 3.41 59.25 0 54.7 0a8.35 8.35 0 00-7.16 3.87 7.44 7.44 0 00-4.17-1.26 6.8 6.8 0 00-7 6.52.57.57 0 000 .13 5.17 5.17 0 00-4.26 4.92 5.28 5.28 0 005.45 5.05h25A5.28 5.28 0 0068 14.18a5.26 5.26 0 00-5.23-5.04z"/><path class="cls-2" d="M81.43 10v-.09a6.27 6.27 0 00-6.51-6 6.8 6.8 0 00-3.84 1.16 7.73 7.73 0 00-6.62-3.57 7.33 7.33 0 00-7.59 7A6.37 6.37 0 0057 9.91a4.86 4.86 0 00-4.82 4.66 4.88 4.88 0 005 4.66h23.14a4.87 4.87 0 005-4.66A4.77 4.77 0 0081.43 10z"/></g></g></svg>