<svg width="589" height="166" viewBox="0 0 589 166" fill="none" xmlns="http://www.w3.org/2000/svg">
<g filter="url(#filter0_d_89_1654)">
<path d="M275.7 32.9068C275.741 35.264 275.736 37.621 275.69 39.973C275.643 42.325 275.551 44.6718 275.417 47.0134C275.283 49.3551 275.109 51.6915 274.898 54.0229C274.682 56.3542 274.435 58.6752 274.142 60.9962C273.854 63.3121 273.53 65.6227 273.17 67.9283C272.809 70.2287 272.419 72.5239 271.992 74.8088C271.57 77.0938 271.112 79.3683 270.624 81.6378C270.135 83.9021 269.621 86.156 269.075 88.41C268.53 90.6536 267.959 92.887 267.368 95.1151C266.962 96.6264 266.545 98.1324 266.118 99.6334C264.637 104.838 262.945 110.083 260.116 114.524C258.953 116.35 256.84 118.238 254.798 116.468C253.167 115.055 253.033 112.791 252.833 110.924C251.64 99.685 253.759 88.5802 253.81 77.264C253.82 75.2112 253.959 73.0139 253.234 71.1674C247.139 75.5619 244.979 84.3043 241.312 91.6542C233.417 107.525 225.954 123.793 218.409 139.452C215.971 144.491 213.317 149.432 210.221 154.033C208.642 156.359 205.89 159.459 203.39 156.545C201.837 154.734 202.125 152.202 202.089 150.206C201.981 142.381 203.467 134.779 204.805 127.166C209.47 100.546 216.516 74.4529 228.382 50.4021C230.928 45.2443 233.72 40.1948 237.074 35.5476C238.036 34.2118 239.018 32.8862 240.18 31.7154C240.942 30.9468 241.795 30.199 242.747 29.6574C242.978 29.5233 243.22 29.4098 243.472 29.317C244.079 29.0952 244.727 29.0591 245.283 29.5181C245.833 29.972 246.064 30.8025 245.653 31.3647C245.339 31.7979 244.85 31.8856 244.326 31.7979C241.209 33.665 239.255 36.9712 237.264 40.0349C230.634 50.2474 225.825 61.5739 221.598 73.0036C214.407 92.4743 209.794 112.904 206.358 133.685C205.37 139.663 204.573 145.574 204.697 151.913C204.722 153.027 204.671 154.358 205.309 155.064C205.859 155.683 207.793 152.826 208.889 151.211C212.9 145.275 215.842 138.616 218.959 132.138C225.759 117.995 232.28 103.718 239.306 89.6684C242.891 82.4888 244.989 74.1228 251.249 69.3158C252.19 68.5937 253.496 68.0779 254.638 69.0217C256.176 70.2906 256.181 72.3847 256.305 74.0764C257.071 84.5158 255.101 94.8418 255.178 105.42C255.199 108.396 254.89 111.538 256.119 114.22C256.423 114.885 256.598 114.467 256.773 114.333C257.837 113.528 258.388 112.162 258.995 111.006C261.299 106.607 262.785 101.779 264.112 96.9204C264.724 94.6922 265.311 92.4537 265.871 90.2049C266.437 87.9458 266.972 85.6763 267.481 83.4017C267.99 81.1271 268.474 78.8423 268.921 76.5522C269.369 74.2621 269.79 71.9617 270.176 69.6562C270.562 67.3507 270.912 65.0348 271.23 62.7189C271.544 60.3979 271.827 58.0717 272.069 55.7404C272.311 53.4091 272.511 51.0674 272.676 48.7258C272.835 46.3841 272.959 44.0322 273.036 41.6803C273.113 39.3283 273.144 36.9712 273.128 34.6089C273.123 33.4277 273.103 32.2414 273.072 31.0603C273.041 29.8998 273.041 28.7599 272.938 27.5943C272.881 26.9805 272.845 26.2739 273.097 25.7065C273.355 25.134 274.034 25.0979 274.579 25.3455C274.882 25.4847 275.145 25.7065 275.273 25.9747C275.469 26.377 275.494 26.8206 275.515 27.2538C275.602 29.1468 275.664 31.0294 275.7 32.9068Z" fill="#FFEF68"/>
<path d="M325.23 98.5811C325.271 99.2826 324.592 99.788 324.16 100.257C323.306 101.17 322.355 101.99 321.491 102.893C320.303 104.059 319.109 105.219 317.896 106.359C315.463 108.644 312.963 110.857 310.345 112.94C309.872 113.317 309.399 113.688 308.915 114.055C306.112 116.174 301.586 118.923 299.035 114.39C297.739 112.089 298.104 109.407 298.562 107.05L298.603 106.839C294.982 111.997 291.593 117.443 285.981 120.827C285.807 120.935 285.627 121.033 285.441 121.131C283.616 122.09 280.946 122.431 279.136 120.45C277.31 118.454 277.243 115.426 277.341 112.636C277.454 109.567 278.035 106.581 278.745 103.636C280.838 94.9758 284.711 86.7904 291.068 80.7299C293.995 77.9396 297.708 75.3813 301.874 76.3251C303.16 76.614 304.369 77.3567 305.181 78.4502C307.527 81.6222 306.714 85.7588 305.989 88.8122C305.639 90.2925 305.12 91.7315 304.657 93.1809C304.621 93.284 304.585 93.3872 304.549 93.4955C304.569 93.4027 304.559 93.4491 304.544 93.5058C304.482 93.6709 304.41 93.8359 304.302 93.9751C304.004 94.3671 303.412 94.5064 302.924 94.3414C302.466 94.1815 302.137 93.7585 302.07 93.2995C301.993 92.7528 302.239 92.2525 302.404 91.7573C302.584 91.2106 302.733 90.6536 302.903 90.1017C303.777 87.2804 304.58 84.2991 303.803 81.2766C303.777 81.1735 303.746 81.0703 303.716 80.9672C303.294 79.621 301.957 78.5585 300.105 78.672C296.083 78.9195 293.079 82.1999 290.513 85.2224C284.516 92.2886 281.137 101.521 280.087 110.888C279.732 114.049 279.29 118.459 281.646 119.346C283.086 119.893 284.31 118.81 285.241 118.134C287.607 116.427 289.638 114.333 291.475 112.105C293.347 109.83 295.018 107.411 296.68 104.987C297.292 104.1 297.899 103.213 298.516 102.326C298.819 101.887 299.128 101.454 299.442 101.021C299.94 100.33 300.372 99.4683 301.262 99.1846C301.468 99.1175 301.694 99.102 301.915 99.1329C302.286 99.1845 302.641 99.3702 302.826 99.69C303.026 100.036 303.006 100.448 302.949 100.835C302.713 102.486 302.059 104.033 301.597 105.622C301.134 107.21 300.779 108.85 300.779 110.537C300.779 111.027 300.81 111.517 300.877 112.002C301.021 113.111 301.674 114.245 303.037 114.127C305.284 113.931 307.023 112.172 308.617 110.934C309.198 110.48 309.774 110.021 310.34 109.557C314.347 106.261 318.024 102.614 321.681 98.9524C322.391 98.2355 323.173 96.8842 324.438 97.467C324.87 97.663 325.204 98.1117 325.23 98.5811Z" fill="#FFEF68"/>
<path d="M350.684 100.041C348.02 102.094 344.888 103.791 341.447 104.157C340.187 104.291 338.829 104.188 337.625 103.589C337.625 103.589 337.245 104.533 337.013 105.162C334.765 111.274 332.302 117.283 329.566 123.199C328.558 125.381 327.668 127.676 326.032 129.461C325.25 130.317 323.661 130.719 322.602 129.528C320.837 127.537 321.537 124.221 321.547 121.667C321.604 112.858 322.067 104.084 323.723 95.6154C323.949 94.4445 323.959 93.2221 324.438 92.1235C324.551 91.8656 324.685 91.6129 324.895 91.4221C325.204 91.1487 325.646 91.1229 326.053 91.2261C326.505 91.3447 326.937 91.649 327.102 92.0823C327.287 92.5568 327.2 93.0726 326.948 93.48C326.886 93.578 326.799 93.6502 326.757 93.7586C326.696 93.9133 326.68 94.1093 326.644 94.2743C326.562 94.6405 326.485 95.0016 326.413 95.3678C326.109 96.8532 325.847 98.3438 325.626 99.8499C325.4 101.382 325.209 102.919 325.045 104.456C324.88 106.013 324.746 107.576 324.638 109.139C324.53 110.707 324.443 112.275 324.376 113.848C324.309 115.411 324.258 116.974 324.222 118.537C324.181 120.239 324.165 121.946 324.119 123.653C324.093 124.669 324.083 125.696 324.119 126.717C324.124 126.82 324.114 127.315 324.232 127.372C324.433 127.47 325.626 125.118 325.76 124.87C326.274 123.921 326.762 122.962 327.225 121.982C328.177 119.976 329.031 117.923 329.905 115.88C330.785 113.817 331.633 111.739 332.451 109.655C333.269 107.566 334.066 105.467 334.832 103.357C335.038 102.79 335.249 102.217 335.455 101.645C335.455 101.645 334.673 99.8087 334.74 98.3387C334.832 96.2549 335.527 94.2279 336.668 92.5258C337.157 91.7883 337.733 90.8702 338.644 90.5968C338.829 90.5401 339.024 90.5143 339.225 90.5194C339.621 90.5298 340.017 90.6639 340.315 90.9269C340.84 91.3911 340.994 92.2215 340.994 92.8611C340.994 93.7844 340.66 94.6509 340.392 95.5122C339.811 97.3742 339.148 99.2 338.5 101.036C338.474 101.108 338.448 101.181 338.422 101.253C339.605 102.016 341.123 101.707 342.558 101.335C344.728 100.768 346.703 99.6849 348.467 98.3903C348.976 98.0137 349.47 97.6166 349.943 97.1988C350.489 96.7139 351.013 96.1982 351.641 95.8114C352.17 95.4813 352.957 95.4142 353.441 95.9558C354.5 97.1369 352.35 98.7564 350.684 100.041Z" fill="#FFEF68"/>
<path d="M379.857 97.2298C379.867 97.5857 379.502 97.9673 379.271 98.1994C378.978 98.4986 378.628 98.741 378.268 98.9679C376.663 99.9582 375.141 101.041 373.541 102.052C371.623 103.27 369.637 104.409 367.544 105.353C365.456 106.292 363.254 107.024 360.961 107.427C360.4 107.525 359.834 107.602 359.268 107.659C356.018 107.979 352.057 107.081 350.586 103.347C348.221 97.3484 353.734 90.6226 358.574 88.4151C359.351 88.0592 360.199 87.8064 361.105 87.8116C362.504 87.8529 363.98 88.6884 364.355 90.1481C364.705 91.5046 364.149 92.8146 363.542 93.9081C361.31 97.9518 356.99 101.005 352.778 101.877C352.778 101.877 353.096 103.507 354.31 104.358C356.301 105.756 358.836 105.266 360.827 104.822C363.157 104.301 365.384 103.45 367.498 102.418C368.639 101.856 369.75 101.248 370.836 100.603C371.88 99.9841 372.955 99.36 373.942 98.6688C374.791 98.0705 375.64 97.4773 376.488 96.8842C377.049 96.4922 377.651 96.0744 378.376 96.0177C379.075 95.9455 379.831 96.5025 379.857 97.2298ZM352.834 99.1588C352.834 99.1588 354.038 98.7616 354.897 98.3077C357.869 96.7243 360.77 94.527 361.737 91.3963C361.886 90.9063 362.303 90.3492 361.31 90.3235C361.279 90.3235 361.279 90.3235 361.254 90.3235C359.119 90.375 357.278 92.2009 355.792 93.8101C354.393 95.3162 353.292 97.1266 352.834 99.1588ZM353.369 101.072C353.354 101.129 353.338 101.17 353.328 101.206C353.456 100.814 353.379 101.021 353.369 101.072Z" fill="#FFEF68"/>
<path d="M12.0956 62.0793C14.2352 62.0793 15.8399 62.559 16.9097 63.5132C17.9795 64.4674 18.5144 65.7208 18.5144 67.263C18.5144 68.6298 18.0978 69.7903 17.2594 70.7445C16.4211 71.6987 15.305 72.1784 13.9111 72.1784C13.4431 72.1784 12.9082 72.0649 12.3064 71.8379C11.6995 71.611 11.2623 71.2706 10.9795 70.8167C9.95593 71.9102 9.28216 73.2305 8.95814 74.7727C8.62896 76.32 8.46952 77.9551 8.46952 79.6829C8.46952 82.0504 9.05072 84.3198 10.2131 86.5067C11.3755 88.6885 13.0522 90.602 15.2381 92.237C17.424 93.8772 20.0522 95.1925 23.1228 96.1931C26.1933 97.1937 29.5879 97.694 33.3117 97.694C39.6379 97.694 44.987 96.2859 49.3639 93.4646C53.7357 90.6484 57.2692 87.0328 59.9694 82.6178C62.6696 78.2078 64.6241 73.3182 65.8328 67.9489C67.0415 62.5848 67.6947 57.396 67.7872 52.393C67.8798 44.3004 68.6925 37.0227 70.2303 30.5652C71.763 24.1076 73.9489 18.6248 76.788 14.1221C79.6271 9.61931 83.1606 6.1378 87.3935 3.68268C91.6264 1.22757 96.4869 0 101.98 0C106.907 0 110.909 1.16051 113.984 3.48152C117.055 5.80253 118.593 8.82499 118.593 12.5541C118.593 15.4682 117.544 17.65 115.45 19.1045C113.357 20.559 110.868 21.2863 107.982 21.2863C109.006 19.7389 109.772 18.238 110.286 16.7835C110.796 15.329 111.053 13.5083 111.053 11.3265C111.053 8.05131 110.075 5.62204 108.121 4.02828C106.167 2.43967 103.842 1.64021 101.142 1.64021C97.5104 1.64021 94.4193 2.34682 91.863 3.7549C89.3017 5.16814 87.1415 7.09715 85.3722 9.55227C83.6029 12.0074 82.1833 14.8751 81.1135 18.1452C80.0437 21.4204 79.1797 24.9019 78.5316 28.5846C77.8784 32.2673 77.3898 36.0685 77.0657 39.9782C76.7366 43.8878 76.4383 47.7561 76.1554 51.5781C75.5022 60.9498 73.8049 68.702 71.0635 74.8397C68.317 80.9775 64.943 85.8723 60.9467 89.5086C56.9452 93.1448 52.4808 95.6979 47.5483 97.1473C42.6159 98.6018 37.5446 99.329 32.3345 99.329C28.1478 99.329 24.3109 98.6688 20.8186 97.3484C17.3314 96.0332 14.3277 94.2125 11.8178 91.8915C9.30788 89.5705 7.37399 86.8214 6.02645 83.639C4.6789 80.4566 4 76.9545 4 73.1325C4 69.9502 4.74578 67.3145 6.23219 65.2204C7.72375 63.1264 9.6782 62.0793 12.0956 62.0793Z" fill="#A89FCA"/>
<path d="M122.568 12.9771C119.899 16.9693 117.127 20.8841 114.252 24.7266C111.377 28.5692 108.63 32.5097 106.012 36.5483L106.161 36.6979C106.917 35.7127 107.797 34.6399 108.805 33.4846C109.813 32.3292 110.893 31.2409 112.056 30.23C113.213 29.2242 114.473 28.3835 115.836 27.7181C117.199 27.0527 118.582 26.7227 119.997 26.7227C121.607 26.7227 122.97 27.1404 124.081 27.976C125.186 28.8167 125.742 30.2661 125.742 32.3344C125.742 33.6187 125.567 34.8359 125.212 35.9912C124.857 37.1518 124.389 38.2349 123.813 39.2458C123.232 40.2567 122.579 41.1903 121.848 42.0517C121.118 42.913 120.372 43.7125 119.616 44.4552L119.765 44.6048C123.391 43.9652 126.683 42.7583 129.63 40.984C132.577 39.2097 135.514 36.5483 138.436 32.9997L139.042 33.2937C136.774 36.0016 134.66 38.1214 132.69 39.6481C130.726 41.1748 128.91 42.3199 127.249 43.0832C125.588 43.8466 124.05 44.3778 122.635 44.6718C121.226 44.9658 119.889 45.2649 118.629 45.5589C117.77 46.1985 116.803 46.9619 115.718 47.849C114.632 48.7362 113.485 49.5872 112.277 50.397C111.068 51.2119 109.808 51.8979 108.496 52.4652C107.185 53.0326 105.853 53.3163 104.49 53.3163C103.785 53.3163 103.091 53.1306 102.412 52.7644C101.733 52.3931 101.393 51.7948 101.393 50.954C101.393 49.9173 101.908 49.056 102.942 48.3648C103.975 47.6737 105.236 47.1218 106.722 46.704C108.208 46.2862 109.756 45.9665 111.371 45.7447C112.981 45.5229 114.344 45.363 115.455 45.265C116.108 44.5274 116.777 43.63 117.456 42.5674C118.135 41.5101 118.752 40.3857 119.308 39.2045C119.863 38.0234 120.316 36.801 120.671 35.5477C121.02 34.2892 121.2 33.1235 121.2 32.0352C121.2 30.3125 120.948 29.1881 120.444 28.6723C119.94 28.1565 119.338 27.8986 118.629 27.8986C117.466 27.8986 116.247 28.3061 114.961 29.1159C113.676 29.9308 112.38 30.9882 111.068 32.2931C109.756 33.598 108.46 35.0525 107.175 36.6515C105.889 38.2555 104.69 39.8441 103.584 41.4173C102.474 42.9956 101.465 44.4603 100.56 45.8168C99.6499 47.1733 98.8938 48.2462 98.292 49.0302C97.8394 49.6698 97.1811 50.6085 96.3273 51.836C95.4735 53.0687 94.5117 54.4717 93.4573 56.05C92.3978 57.6282 91.2766 59.3252 90.0936 61.151C88.9107 62.9717 87.738 64.8079 86.5807 66.6595C85.4235 68.506 84.3126 70.2906 83.253 72.0185C82.1935 73.7412 81.2626 75.2937 80.4551 76.676H75.7695C82.5741 65.9839 89.5176 55.3794 96.5948 44.8575C103.677 34.3407 110.667 23.7105 117.574 12.9668H122.568V12.9771ZM105.56 52.4447C106.316 52.4447 107.159 52.1971 108.09 51.7071C109.021 51.2171 109.931 50.624 110.811 49.9328C111.69 49.2417 112.488 48.5557 113.192 47.8645C113.897 47.1734 114.401 46.6576 114.704 46.312L114.555 46.1624C113.696 46.312 112.626 46.4719 111.341 46.6421C110.055 46.8175 108.82 47.0496 107.637 47.3436C106.454 47.6376 105.446 48.045 104.613 48.5608C103.78 49.0766 103.368 49.7832 103.368 50.6652C103.368 51.2583 103.595 51.7019 104.047 51.9959C104.5 52.2951 104.999 52.4447 105.56 52.4447Z" fill="#A89FCA"/>
<path d="M158.325 27.3158H163.237C161.37 29.8792 159.58 32.3653 157.867 34.7792C156.154 37.193 154.627 39.4212 153.295 41.4688C151.958 43.5113 150.888 45.3114 150.08 46.8639C149.273 48.4164 148.872 49.6336 148.872 50.5207C148.872 51.805 149.55 52.4447 150.913 52.4447C151.973 52.4447 153.32 51.9392 154.956 50.9282C156.592 49.9173 158.371 48.5247 160.285 46.7556C162.198 44.9813 164.168 42.913 166.184 40.5456C168.2 38.1781 170.113 35.6663 171.929 33.0049L172.382 33.1545C171.024 35.1763 169.419 37.3529 167.583 39.6945C165.742 42.0362 163.813 44.2179 161.802 46.2346C159.786 48.2565 157.769 49.9431 155.753 51.2944C153.737 52.6509 151.85 53.3266 150.085 53.3266C148.625 53.3266 147.555 52.9708 146.871 52.2538C146.192 51.542 145.852 50.691 145.852 49.7058C145.852 49.0147 145.966 48.339 146.192 47.6737C146.418 47.0083 146.655 46.3326 146.907 45.6415L146.758 45.5693C146.104 46.2604 145.282 47.0599 144.299 47.9728C143.317 48.8857 142.257 49.7368 141.126 50.5207C139.994 51.3099 138.822 51.9752 137.608 52.5168C136.399 53.0584 135.237 53.3318 134.131 53.3318C132.264 53.3318 130.957 52.7644 130.201 51.6348C129.445 50.5001 129.07 49.221 129.07 47.7923C129.07 45.7756 129.723 43.5423 131.035 41.1026C132.346 38.663 134.007 36.3729 136.024 34.2273C138.04 32.0816 140.231 30.297 142.602 28.8683C144.968 27.4396 147.21 26.7278 149.329 26.7278C150.337 26.7278 151.217 26.8619 151.973 27.1353C152.729 27.4086 153.356 27.7749 153.861 28.2442C154.365 28.7136 154.755 29.2448 155.033 29.8328C155.311 30.4259 155.527 31.0398 155.676 31.6793H155.825L158.325 27.3158ZM133.601 48.0089C133.601 49.1436 133.838 50.0153 134.316 50.6343C134.794 51.248 135.463 51.5575 136.322 51.5575C137.176 51.5575 138.184 51.248 139.346 50.6343C140.503 50.0205 141.712 49.1952 142.972 48.1585C144.232 47.1218 145.477 45.9303 146.717 44.5738C147.951 43.2173 149.046 41.7783 150.003 40.2516C150.96 38.7249 151.741 37.1724 152.348 35.5941C152.955 34.0158 153.259 32.5149 153.259 31.0862C153.259 29.9514 152.93 29.0901 152.276 28.4969C151.623 27.9038 150.816 27.6098 149.859 27.6098C148.347 27.6098 146.66 28.2494 144.793 29.5285C142.926 30.8128 141.162 32.4478 139.5 34.4439C137.839 36.44 136.44 38.6475 135.304 41.0613C134.172 43.4752 133.601 45.791 133.601 48.0089Z" fill="#A89FCA"/>
<path d="M179.412 27.3157L169.81 40.9891L169.959 41.1387C170.664 40.3031 171.559 39.3283 172.644 38.2194C173.729 37.1104 174.912 35.9757 176.198 34.8204C177.484 33.665 178.831 32.52 180.241 31.3853C181.65 30.2505 183.038 29.2448 184.401 28.3576C184.653 27.8676 184.931 27.4705 185.235 27.1765C185.538 26.8825 186.14 26.7329 187.05 26.7329C187.606 26.7329 188.094 26.7433 188.526 26.7691C188.953 26.7948 189.396 26.8309 189.848 26.8825C188.989 27.7232 188.156 28.7444 187.354 29.9514C186.546 31.1583 186.145 32.4787 186.145 33.9074C186.145 35.0422 186.433 35.9293 187.014 36.5689C187.595 37.2084 188.31 37.5282 189.169 37.5282C189.925 37.5282 190.666 37.3787 191.402 37.0847C192.132 36.7907 192.826 36.4193 193.479 35.9757C194.133 35.5321 194.765 35.0628 195.367 34.5728C195.974 34.0828 196.499 33.6392 196.956 33.2421L197.409 33.5361C196.905 34.0312 196.324 34.5573 195.67 35.1247C195.017 35.692 194.307 36.2233 193.551 36.7133C192.795 37.2085 191.988 37.6159 191.134 37.9357C190.275 38.2555 189.396 38.4154 188.49 38.4154C186.875 38.4154 185.579 37.9357 184.597 36.9764C183.615 36.017 183.121 34.676 183.121 32.9481C183.121 31.767 183.399 30.7044 183.954 29.7709L183.805 29.6213C181.737 31.0036 179.469 32.8088 177 35.0525C174.531 37.2961 171.908 39.9421 169.136 42.9955C168.128 44.0786 167.084 45.5074 165.999 47.2817C164.914 49.0559 163.972 50.8766 163.165 52.7489H158.253C160.974 48.5144 163.695 44.3004 166.415 40.1123C169.136 35.9242 171.934 31.6638 174.809 27.3261H179.412V27.3157Z" fill="#A89FCA"/>
<path d="M221.52 1.59375C217.39 7.99974 213.255 14.2923 209.125 20.4765C204.99 26.6607 200.705 32.7572 196.272 38.7661L196.421 38.9156C197.733 37.4869 199.029 36.0479 200.314 34.5934C201.6 33.1389 202.932 31.834 204.321 30.6735C205.71 29.5181 207.145 28.5691 208.631 27.8263C210.118 27.0888 211.666 26.7175 213.281 26.7175C214.942 26.7175 216.14 27.1146 216.871 27.8986C217.601 28.6877 217.966 29.6471 217.966 30.7818C217.966 31.963 217.601 33.01 216.871 33.9229C216.14 34.8358 215.235 35.625 214.15 36.2903C213.065 36.9557 211.882 37.487 210.596 37.879C209.31 38.2761 208.137 38.5701 207.083 38.7661V38.9156C207.69 39.2096 208.204 39.7667 208.631 40.5765C209.058 41.3914 209.274 42.2373 209.274 43.1244C209.274 43.7176 209.161 44.3314 208.935 44.9709C208.708 45.6105 208.446 46.2759 208.143 46.967C207.839 47.6582 207.577 48.3338 207.351 48.9992C207.124 49.6645 207.011 50.3402 207.011 51.0314C207.011 51.9701 207.412 52.4343 208.22 52.4343C209.583 52.4343 211.295 51.8411 213.358 50.66C215.425 49.4788 217.617 47.7562 219.936 45.4867C221.546 43.9136 223.187 42.1599 224.848 40.2412C226.509 38.3225 228.299 36.0067 230.212 33.2937L230.891 33.7372C229.935 35.0679 228.536 36.8886 226.694 39.2045C224.853 41.5203 222.698 43.8878 220.229 46.2965C217.858 48.6123 215.616 50.3608 213.502 51.542C211.383 52.7231 209.444 53.3162 207.68 53.3162C206.168 53.3162 204.995 52.9965 204.167 52.3569C203.334 51.7173 202.917 50.7322 202.917 49.4015C202.917 48.7103 203.092 47.9367 203.447 47.0753C203.796 46.214 204.177 45.3732 204.578 44.5635C204.979 43.7485 205.36 42.9903 205.715 42.2734C206.065 41.5616 206.245 40.9788 206.245 40.5352C206.245 39.6016 205.818 39.1323 204.959 39.1323C204.455 39.1323 203.863 39.2303 203.179 39.4263C202.5 39.6223 201.729 39.7203 200.875 39.7203C200.119 39.7203 199.744 39.4985 199.744 39.0549C199.744 38.6113 200.119 38.3896 200.875 38.3896C201.179 38.3896 201.518 38.4153 201.893 38.4617C202.269 38.5133 202.737 38.534 203.292 38.534C204.805 38.534 206.204 38.3637 207.489 38.0182C208.775 37.6726 209.896 37.1672 210.853 36.5018C211.81 35.8364 212.556 35.037 213.085 34.0983C213.615 33.1647 213.877 32.1022 213.877 30.921C213.877 29.8843 213.625 29.121 213.121 28.631C212.617 28.141 212.01 27.8934 211.306 27.8934C210.349 27.8934 209.238 28.2751 207.978 29.0385C206.718 29.8018 205.37 30.8385 203.935 32.1434C202.5 33.4483 201.035 34.9493 199.553 36.6514C198.067 38.3535 196.632 40.1277 195.243 41.9742C193.854 43.8207 192.558 45.6672 191.35 47.5189C190.141 49.3654 189.107 51.1035 188.248 52.7282H183.259C188.855 44.2075 194.436 35.7436 200.006 27.3415C205.576 18.9395 211.182 10.4291 216.824 1.80524L221.52 1.59375Z" fill="#A89FCA"/>
<path d="M255.765 1.2998C251.28 7.95337 247.371 13.7043 244.048 18.5578C240.721 23.4113 237.876 27.5633 235.505 31.0087C233.134 34.4593 231.195 37.3013 229.683 39.5449C228.171 41.7886 226.988 43.6247 226.129 45.0534C225.27 46.4822 224.679 47.6169 224.355 48.4525C224.025 49.2932 223.861 50.0049 223.861 50.5929C223.861 51.8256 224.416 52.4395 225.522 52.4395C226.782 52.4395 228.258 51.934 229.945 50.923C231.632 49.9121 233.448 48.535 235.387 46.7865C237.326 45.038 239.306 42.9955 241.322 40.6538C243.339 38.3122 245.303 35.8158 247.222 33.1544L248.055 33.4484C246.239 35.9602 244.326 38.3896 242.31 40.726C240.294 43.0677 238.355 45.0999 236.488 46.8226C234.019 49.092 231.89 50.7374 230.1 51.7741C228.31 52.8108 226.685 53.3266 225.224 53.3266C223.66 53.3266 222.539 52.981 221.86 52.295C221.181 51.6039 220.842 50.6961 220.842 49.5614C220.842 48.5246 221.032 47.457 221.408 46.3481C221.788 45.2391 222.426 43.9084 223.336 42.3559C224.247 40.8034 225.44 38.9208 226.926 36.703C228.413 34.4851 230.254 31.7618 232.445 28.5381C234.636 25.3094 237.218 21.4668 240.196 17.0105C243.169 12.5541 246.594 7.31897 250.478 1.30497H255.765V1.2998Z" fill="#A89FCA"/>
<path d="M255.688 27.3158C252.915 31.21 250.57 34.4852 248.657 37.1466C246.743 39.808 245.19 42.0259 244.007 43.8002C242.824 45.5745 241.965 46.9774 241.435 48.0141C240.906 49.0508 240.643 49.8864 240.643 50.5259C240.643 51.8102 241.173 52.4498 242.233 52.4498C243.241 52.4498 244.413 52.0939 245.751 51.377C247.083 50.6652 248.482 49.7368 249.948 48.6072C251.408 47.4725 252.869 46.1934 254.33 44.7647C255.79 43.336 257.164 41.9176 258.45 40.5147C259.735 39.1118 260.867 37.7553 261.854 36.4503C262.837 35.1454 263.557 34.0726 264.009 33.237L264.616 33.6084C264.009 34.5935 263.192 35.7747 262.158 37.1569C261.124 38.5392 259.951 39.9525 258.645 41.407C257.333 42.8615 255.95 44.3005 254.489 45.7292C253.028 47.1579 251.542 48.437 250.03 49.5718C248.518 50.7065 247.042 51.6194 245.607 52.3054C244.172 52.9966 242.85 53.337 241.636 53.337C240.273 53.337 239.265 52.9708 238.612 52.228C237.959 51.4905 237.629 50.6755 237.629 49.7884C237.629 48.7517 237.871 47.6582 238.349 46.4977C238.828 45.3424 239.594 43.924 240.654 42.2477C241.713 40.5714 243.086 38.5392 244.773 36.1511C246.46 33.7631 248.487 30.818 250.858 27.321H255.688V27.3158ZM260.075 13.5703C260.779 13.5703 261.361 13.8024 261.813 14.2718C262.266 14.7411 262.492 15.3188 262.492 16.0099C262.492 16.7011 262.266 17.2788 261.813 17.7481C261.361 18.2175 260.779 18.4496 260.075 18.4496C259.37 18.4496 258.789 18.2175 258.336 17.7481C257.884 17.2788 257.657 16.7011 257.657 16.0099C257.657 15.3188 257.884 14.7411 258.336 14.2718C258.789 13.8024 259.365 13.5703 260.075 13.5703Z" fill="#A89FCA"/>
<path d="M271.565 27.3158L261.587 40.8396L261.736 40.9891C262.795 39.7564 264.03 38.3174 265.439 36.6669C266.848 35.0164 268.36 33.4536 269.975 31.9733C271.585 30.493 273.262 29.25 275 28.239C276.739 27.2281 278.467 26.7227 280.18 26.7227C281.692 26.7227 282.864 27.1301 283.692 27.9399C284.526 28.7548 284.942 29.8018 284.942 31.081C284.942 31.8701 284.649 32.8088 284.073 33.8868C283.492 34.9699 282.772 36.1305 281.918 37.3632C281.059 38.5959 280.128 39.8492 279.12 41.1335C278.112 42.4127 277.181 43.6351 276.322 44.7904C275.463 45.9509 274.748 47.0083 274.167 47.9676C273.586 48.927 273.298 49.7316 273.298 50.3712C273.298 51.7535 274.003 52.4395 275.417 52.4395C277.027 52.4395 278.745 51.9082 280.56 50.8508C282.376 49.7935 284.541 48.0037 287.061 45.4919C288.069 44.5067 289.088 43.4236 290.122 42.2373C291.155 41.0562 292.148 39.8853 293.11 38.73C294.067 37.5746 294.936 36.476 295.718 35.4393C296.499 34.4026 297.117 33.5413 297.569 32.8501L298.099 33.1441C297.091 34.6244 295.795 36.3832 294.205 38.4257C292.616 40.4682 290.888 42.4797 289.026 44.45C287.915 45.6312 286.784 46.7659 285.621 47.849C284.464 48.9321 283.302 49.8812 282.144 50.6961C280.982 51.5111 279.84 52.1506 278.704 52.6148C277.572 53.0842 276.446 53.3163 275.34 53.3163C273.879 53.3163 272.67 52.9243 271.709 52.1351C270.752 51.346 270.274 50.2629 270.274 48.8806C270.274 47.4003 270.881 45.791 272.089 44.0374C273.298 42.2889 274.635 40.5301 276.096 38.7558C277.557 36.9815 278.894 35.2846 280.102 33.6547C281.311 32.03 281.918 30.6013 281.918 29.3686C281.918 28.7755 281.717 28.3319 281.311 28.0379C280.905 27.7439 280.38 27.5943 279.722 27.5943C278.462 27.5943 277.053 28.0482 275.489 28.9611C273.925 29.8741 272.326 31.081 270.69 32.5819C269.05 34.0828 267.414 35.7591 265.778 37.6056C264.138 39.4521 262.615 41.2986 261.206 43.1503C259.797 44.9967 258.537 46.771 257.426 48.4731C256.315 50.1752 255.487 51.5884 254.931 52.7231H250.246C251.557 50.5568 252.956 48.3493 254.443 46.1108C255.929 43.8672 257.405 41.6493 258.866 39.4572C260.326 37.2652 261.725 35.1453 263.063 33.1029C264.395 31.0604 265.593 29.1984 266.653 27.5221L271.565 27.3158Z" fill="#A89FCA"/>
<path d="M323.193 27.3158C320.169 31.308 317.31 35.3723 314.614 39.5089C311.919 43.6454 309.132 47.7614 306.262 51.8515C308.782 51.31 311.261 50.4228 313.709 49.1901C316.152 47.9574 318.462 46.4823 320.627 44.7544C322.792 43.0317 324.798 41.1336 326.639 39.0602C328.481 36.9919 330.029 34.8978 331.289 32.778L331.592 33.2215C329.376 36.9145 326.943 39.9989 324.299 42.4591C321.656 44.9246 319.094 46.8949 316.625 48.37C314.157 49.8503 311.94 50.918 309.975 51.5833C308.01 52.2487 306.596 52.6303 305.742 52.7283C305.49 52.8779 304.986 53.5175 304.23 54.6522C303.474 55.7869 302.466 57.164 301.206 58.7888C299.946 60.4135 298.449 62.1362 296.711 63.9621C294.972 65.7828 293.007 67.4745 290.811 69.0218C288.62 70.5743 286.187 71.8689 283.518 72.9005C280.849 73.9372 277.974 74.453 274.898 74.453C273.082 74.453 271.395 74.257 269.832 73.8598C268.268 73.4627 266.921 72.9005 265.789 72.1578C264.657 71.4202 263.773 70.5331 263.14 69.4964C262.513 68.4596 262.194 67.3043 262.194 66.0252C262.194 63.9053 262.976 62.1465 264.539 60.7384C266.103 59.3355 268.068 58.6341 270.439 58.6341C270.943 58.6341 271.359 58.6598 271.683 58.7062C272.012 58.7526 272.352 58.83 272.702 58.928V59.5212H272.095C270.13 59.5212 268.669 60.1247 267.713 61.3316C266.756 62.5385 266.278 64.1529 266.278 66.1748C266.278 67.5055 266.514 68.635 266.993 69.5737C267.471 70.5073 268.124 71.2758 268.957 71.8638C269.791 72.4569 270.757 72.885 271.868 73.1584C272.979 73.4266 274.188 73.5659 275.494 73.5659C277.711 73.5659 279.892 73.0604 282.032 72.0495C284.176 71.0386 286.228 69.7078 288.193 68.0573C290.158 66.4068 292.035 64.55 293.825 62.4766C295.615 60.4083 297.302 58.3246 298.891 56.2305C300.481 54.1364 301.926 52.1146 303.237 50.1701C304.549 48.2256 305.706 46.5596 306.714 45.1825L306.565 45.0329C305.758 45.9665 304.863 46.9155 303.88 47.88C302.898 48.8393 301.849 49.7265 300.743 50.5414C299.632 51.3564 298.475 52.0217 297.266 52.5375C296.057 53.0533 294.797 53.3112 293.486 53.3112C292.529 53.3112 291.696 53.1358 290.991 52.7954C290.287 52.4498 289.705 51.9959 289.253 51.4286C288.8 50.8612 288.471 50.2372 288.27 49.546C288.07 48.8549 287.967 48.1895 287.967 47.5499C287.967 46.0232 288.306 44.4449 288.985 42.8202C289.664 41.1955 290.559 39.6069 291.67 38.0544C292.776 36.5019 294.062 35.0474 295.528 33.696C296.988 32.3395 298.516 31.1481 300.1 30.1114C301.689 29.0747 303.289 28.2494 304.899 27.6356C306.509 27.0218 308 26.7124 309.358 26.7124C311.323 26.7124 312.747 27.192 313.632 28.1514C314.512 29.1107 314.954 30.2352 314.954 31.5143H315.18L317.978 27.3004H323.193V27.3158ZM309.209 27.6099C307.548 27.6099 305.742 28.2855 303.803 29.642C301.864 30.9985 300.049 32.6851 298.362 34.7018C296.675 36.7237 295.276 38.9158 294.165 41.278C293.054 43.6455 292.503 45.8582 292.503 47.9316C292.503 49.0148 292.791 49.8916 293.373 50.5518C293.954 51.2171 294.694 51.5523 295.605 51.5523C296.309 51.5523 297.23 51.2687 298.362 50.7014C299.493 50.134 300.681 49.3448 301.916 48.3339C303.15 47.3229 304.395 46.1418 305.66 44.7853C306.92 43.4288 308.041 41.9898 309.024 40.4631C310.006 38.9364 310.813 37.3478 311.441 35.6973C312.068 34.0468 312.387 32.4066 312.387 30.7819C312.387 29.9464 312.146 29.2036 311.672 28.564C311.189 27.9348 310.366 27.6099 309.209 27.6099Z" fill="#A89FCA"/>
<path d="M542.606 46.2863C544.828 46.7917 546.289 47.2508 547.446 47.7975C548.778 48.4835 549.087 48.8549 549.087 49.9535C549.087 51.2378 548.645 52.0631 547.976 52.0631C547.534 52.0631 547.441 51.9702 546.423 50.5466C545.492 49.3088 544.561 48.4371 542.385 46.7402L542.606 46.2863ZM566.672 56.8804C565.34 59.0828 564.63 60.0009 562.989 61.4657C560.68 63.4824 558.551 64.8131 555.706 65.9582L555.398 65.5455C559.214 62.9305 561.745 60.3155 563.745 56.8753H559.574C557.712 58.8043 555.933 60.1298 551.849 62.5179L551.448 62.0588C555.712 58.6186 557.707 56.4162 559.615 52.9811H555.974C554.467 52.9811 554.199 53.0275 553.222 53.2545L552.867 51.5111C554.374 51.8309 555.177 51.9238 555.974 51.9238H577.149C578.039 50.6395 578.347 50.2733 579.237 49.1282C580.878 50.5054 581.366 50.918 582.92 52.3364C583.1 52.5221 583.187 52.6562 583.187 52.749C583.187 52.8883 583.053 52.9811 582.832 52.9811H562.501C561.925 54.0797 561.349 54.8585 560.546 55.8231H576.881C577.591 55.1371 577.812 54.905 578.481 54.219C579.505 54.905 579.813 55.137 580.744 55.8695C581.145 56.2357 581.279 56.4214 581.279 56.5555C581.279 56.8288 580.924 57.2002 579.813 58.0254C579.237 60.8674 578.615 63.0698 578.172 64.0343C577.638 65.3186 576.619 66.0046 574.397 66.6493C573.955 64.8595 573.199 64.3592 570.313 63.9414L570.401 63.2967C571.512 63.436 573.507 63.5701 574.042 63.5701C575.153 63.5701 575.596 63.2967 575.997 62.3322C576.398 61.4605 576.753 59.7172 577.195 56.8753H573.379C572.047 59.8565 571.116 61.0479 568.498 63.0698C567.346 63.9879 566.101 64.8131 564.99 65.4063C565.036 65.5456 565.078 65.592 565.078 65.6384C565.078 66.0046 564.723 66.2315 563.565 66.6029C563.478 67.2889 563.432 67.521 563.298 67.98C563.432 68.207 563.432 68.207 563.787 68.9909C564.316 70.0947 564.985 71.1005 565.962 72.0186C566.142 71.9257 566.142 71.9257 569.202 69.9555C570.802 68.9033 571.244 68.5319 572.978 66.608C573.734 67.1135 574.31 67.4333 574.711 67.6654C576.573 68.7176 576.887 68.9497 576.887 69.3623C576.887 69.6357 576.532 69.8213 576.089 69.8213C575.822 69.8213 575.2 69.7285 574.402 69.5893C570.272 71.4719 569.609 71.7452 566.723 72.7097C567.788 73.535 568.899 74.1745 570.097 74.5872C572.983 75.6909 578.579 77.2486 582.086 77.2486C582.488 77.2486 583.151 77.2486 583.953 77.2022L584 77.7541C582.534 78.6257 582.225 79.0384 581.824 80.6889C575.652 79.9565 569.701 77.5219 566.816 74.9533C565.129 73.4421 564.105 71.9258 562.953 69.4036C560.778 76.5111 555.141 79.6315 543.018 80.3639L542.884 79.6315C548.521 78.7598 552.296 77.4755 555.362 75.4124C558.911 73.0295 560.778 69.8162 560.778 66.0097C560.778 65.6435 560.778 65.5043 560.69 64.9988C562.557 65.0452 563.221 65.0917 563.931 65.1381C565.618 63.8538 566.461 63.075 567.526 61.7907C568.945 60.1402 569.48 59.2685 570.457 56.8804H566.672ZM543.496 56.7463C544.52 56.9268 545.183 57.0197 545.713 57.0197C546.289 57.0197 546.423 56.9268 547.935 54.5439C549.447 52.2539 550.111 51.1501 552.728 46.8846C554.904 43.2638 554.904 43.2638 555.881 41.7474L556.591 42.1136L549.267 57.0661C548.557 58.5309 548.511 58.6238 548.511 59.4026C548.511 60.2743 548.511 60.2743 549.221 62.1569C549.354 62.6159 549.488 63.3483 549.488 63.993C549.488 64.8182 549.308 65.2774 548.778 65.9221C547.981 66.7937 547.667 67.0207 547.045 67.0207C546.335 67.0207 545.934 66.608 545.934 65.7363C545.934 65.463 545.98 65.1845 546.243 62.0227C546.33 61.1975 546.376 60.5992 546.376 60.1866C546.376 59.3149 546.022 58.6289 545.487 58.2575C545.086 57.9842 544.823 57.8914 543.399 57.4788L543.496 56.7463ZM545.538 38.4C547.935 39.1788 549.756 39.9577 550.82 40.6488C551.576 41.1543 551.885 41.7526 551.885 42.8048C551.885 44.1355 551.618 44.7751 551.041 44.7751C550.553 44.7751 550.198 44.5481 549.797 43.9498C548.645 42.2993 546.958 40.4167 545.312 38.859L545.538 38.4ZM554.148 66.835C553.927 69.3107 553.485 70.7807 552.461 72.3384C551.53 73.7619 550.198 74.9069 549.354 74.9069C548.691 74.9069 548.156 73.896 548.156 72.7045C548.156 71.9257 548.424 71.6472 549.354 71.3274C551.396 70.7291 552.548 69.4448 553.438 66.8298H554.148V66.835ZM572.931 40.1433C573.729 39.3181 573.955 39.0911 574.752 38.4C575.95 39.086 576.259 39.3181 577.37 40.1433C577.725 40.4167 577.812 40.556 577.812 40.6952C577.812 40.9686 577.411 41.2471 576.347 41.7061C576.3 43.4031 576.3 44.5945 576.3 45.559C576.3 46.8897 576.3 47.6222 576.388 49.1386C576.388 49.5512 576.3 49.6904 576.079 49.8245C575.992 49.8709 574.392 50.0567 573.903 50.0567C573.595 50.0567 573.415 49.9174 573.415 49.644C573.415 49.644 573.415 49.5976 573.415 49.5511V48.8188H561.338V49.7369C561.338 50.2423 561.071 50.3352 559.518 50.3816C559.384 50.3816 559.25 50.3816 559.209 50.3816C559.122 50.3816 559.075 50.3816 559.075 50.3816C558.674 50.3816 558.546 50.2423 558.546 49.969C558.592 48.499 558.592 47.3076 558.592 46.5751C558.638 45.4765 558.638 44.9246 558.638 44.6048L558.592 40.6127C558.592 39.6482 558.592 39.6482 558.546 37.8171C559.919 38.7816 560.32 39.1014 561.698 40.1536H572.931V40.1433ZM573.42 41.1955H561.344V43.7177H573.42V41.1955ZM561.344 44.7751V47.7562H573.42V44.7751H561.344Z" fill="#0088BF" stroke="#0088BF" stroke-width="0.514" stroke-miterlimit="10"/>
<path d="M531.497 32.7728C531.106 32.1332 530.844 31.7361 530.844 31.7361C530.844 31.7361 529.445 33.9024 528.046 36.4555C527.347 37.7295 526.647 39.1066 526.122 40.3496C525.598 41.5978 525.248 42.717 525.248 43.4958C525.248 43.8827 525.289 44.2592 525.361 44.6254C525.732 46.4513 526.992 47.9522 528.663 48.664C529.332 48.9477 530.067 49.1024 530.839 49.1024C531.225 49.1024 531.6 49.0611 531.965 48.9889C532.33 48.9167 532.68 48.8032 533.014 48.664C533.683 48.3803 534.285 47.9677 534.794 47.4622C535.298 46.9568 535.71 46.3482 535.992 45.6776C536.275 45.0071 536.43 44.2695 536.43 43.4958C536.435 41.0459 532.963 35.1557 531.497 32.7728Z" fill="#0088BF"/>
<path d="M527.387 68.8052C529.964 67.2475 534.048 64.6325 535.113 63.8072C535.38 63.8072 535.648 63.8072 535.776 63.8072C536.532 63.8072 537.021 63.5752 537.021 63.209C537.021 62.8892 536.532 62.5694 533.112 60.8209C531.78 63.0233 529.383 65.8188 526.806 68.114C525.654 66.6028 525.032 65.5454 524.142 63.3431C525.119 63.0233 525.474 62.7911 525.474 62.4714C525.474 62.3785 525.34 62.198 525.073 61.9659C524.049 61.2335 523.741 61.0014 522.63 60.3154C522.008 61.0478 521.786 61.2799 521.123 62.1052H514.776C514.02 62.1052 513.176 61.9659 511.803 61.6925L512.246 63.4359C513.31 63.2502 513.979 63.1625 514.776 63.1625H521.123V76.0054C521.123 76.3252 520.989 76.4645 520.634 76.4645C520.501 76.4645 520.367 76.4645 520.233 76.4181C518.68 76.3717 518.634 76.3716 514.864 76.0054L514.776 76.7843C518.947 77.6095 519.791 78.115 519.971 79.9512C521.612 79.7706 522.455 79.5386 523.211 78.9403C523.833 78.5276 524.008 78.1614 524.142 77.2433C524.096 73.9887 524.055 72.0597 524.055 71.4614L523.833 64.4417C525.212 67.9748 526.055 69.6252 527.429 71.5027C529.779 74.7108 532.001 76.547 535.951 78.5224C536.573 76.7791 537.283 76.0931 538.924 75.6805L539.099 75.0358C533.025 73.5297 530.36 72.1062 527.387 68.8052Z" fill="#231815"/>
<path d="M512.96 53.8114C512.163 53.8114 510.918 53.6722 509.453 53.3988L509.895 55.1421C511.628 54.91 512.024 54.8688 512.96 54.8688H538.219C538.399 54.8688 538.574 54.7295 538.574 54.5954C538.574 54.5025 538.528 54.4561 538.394 54.322C536.882 52.9449 536.398 52.5322 534.84 51.2944C533.909 52.3466 533.595 52.6715 532.577 53.8166H524.054V49.7368H528.118C527.526 49.4686 526.991 49.1023 526.513 48.6794H524.054V45.0122H524.363C524.296 44.6718 524.27 44.3159 524.255 43.9548H518.947C519.523 43.0832 519.837 42.2579 519.837 41.5719C519.837 40.3341 518.371 39.416 514.91 38.3174L514.776 38.6836C516.108 40.3805 516.998 41.804 517.615 43.2689C517.795 43.6351 517.836 43.7279 517.97 43.9548H513.31C512.775 43.9548 511.803 43.7743 510.157 43.403L510.512 45.2391C512.508 45.0122 512.508 45.0122 513.31 45.0122H521.123V48.6794H514.776C514.246 48.6794 513.711 48.5865 511.711 48.2203L512.199 49.9637C513.84 49.7316 513.974 49.7316 514.776 49.7316H521.123V53.8114H512.96V53.8114Z" fill="#231815"/>
<path d="M503.682 69.1713C503.682 68.8515 503.682 68.8051 504.037 67.7478L509.406 48.669L508.871 48.4885C505.276 57.6178 503.81 61.285 502.17 64.8646C501.635 66.1024 501.372 66.4222 500.971 66.4222C500.75 66.4222 500.349 66.3758 499.994 66.283C498.574 66.0096 498.574 66.0096 498.127 65.9168L497.952 66.5563C500.215 67.6549 500.215 67.6549 500.529 68.0263C501.064 68.5318 501.285 69.357 501.285 70.6413C501.285 71.8791 501.198 72.9314 500.709 76.1447C500.622 76.9235 500.488 77.888 500.488 78.0737C500.488 78.5792 500.889 78.9454 501.511 78.9454C502.355 78.9454 503.332 78.4399 503.954 77.661C504.489 77.0163 504.664 76.2375 504.664 74.7727C504.664 73.5812 504.53 72.756 503.908 70.6C503.769 69.9966 503.682 69.5375 503.682 69.1713Z" fill="#231815"/>
<path d="M520.197 67.6601C520.197 67.5208 520.11 67.3867 519.93 67.1546C518.953 66.2829 518.644 66.0096 517.62 65.1843C516.823 65.8703 516.556 66.1024 515.753 66.8813H509.895C509.36 66.8813 508.522 66.742 507.231 66.4686L507.632 68.212C508.429 68.0314 509.273 67.9386 509.895 67.9386H515.753C513.177 72.5703 510.739 75.1389 505.457 78.7184L505.724 79.2239C511.896 76.3819 514.956 73.8598 518.51 68.5369C520.197 67.9334 520.197 67.9335 520.197 67.6601Z" fill="#231815"/>
<path d="M517.219 56.4678V56.8804C517.749 57.1074 517.749 57.1073 522.681 59.0363C523.834 59.4954 524.811 60.0473 525.922 60.919C526.41 61.2387 526.631 61.378 526.853 61.378C527.166 61.378 527.475 60.9654 527.475 60.4599C527.475 59.3149 526.986 58.3968 526.143 57.9377C524.903 57.2053 520.814 56.5606 517.219 56.4678Z" fill="#231815"/>
<path d="M504.747 45.7396C505.41 46.8382 505.503 46.931 505.858 46.931C506.655 46.931 507.411 45.5074 507.411 43.9498C507.411 42.8976 507.01 42.3457 505.59 41.5669C504.572 41.015 501.46 39.5038 500.174 38.9519L499.773 39.4574C501.902 41.4276 502.972 42.7532 504.747 45.7396Z" fill="#231815"/>
<path d="M503.013 57.0661C503.769 57.0661 504.52 55.6425 504.52 54.2706C504.52 52.3003 502.653 50.9231 497.464 49.0405L497.243 49.4996C499.465 51.7948 500.797 53.6258 501.949 55.8282C502.525 56.9733 502.571 57.0661 503.013 57.0661Z" fill="#231815"/>
<path d="M467.432 52.4344C467.432 52.2539 467.298 52.0218 466.902 51.6556C465.791 50.6911 465.436 50.3713 464.284 49.3604C463.528 50.232 463.261 50.5518 462.51 51.5163H455.186C453.632 51.5163 452.789 51.4235 451.277 51.0573L451.632 52.847C452.655 52.6665 453.674 52.5737 455.186 52.5737H462.51C461.178 57.9378 459.624 61.7907 457.181 65.7828C455.093 69.2695 452.964 71.7917 449.369 75.1855L449.77 75.7838C453.9 73.0296 456.564 70.5538 459.136 67.1135C461.887 63.4463 463.708 59.7327 465.709 53.5382C466.943 53.1204 467.432 52.7542 467.432 52.4344Z" fill="#231815"/>
<path d="M472.051 40.8292C473.691 40.3702 474.092 40.1432 474.092 39.7255C474.092 39.2664 474.092 39.2664 468.81 38.4412C468.99 41.2831 469.031 42.5674 469.031 45.3681V74.7211C469.031 75.273 468.851 75.4536 468.275 75.5C465.39 75.4536 465.303 75.4535 459.887 75.0873L459.84 75.8198C463.039 76.3716 464.546 76.7843 465.477 77.2897C466.408 77.7488 466.722 78.2543 466.943 79.7191C469.654 79.2136 470.893 78.7081 471.649 77.8829C472.138 77.331 472.272 76.8307 472.272 75.5L472.051 62.3373L471.84 45.4351L471.711 40.9169L472.051 40.8292Z" fill="#231815"/>
<path d="M482.703 65.3186C480.573 63.2555 478.794 60.9138 477.287 58.2111C481.417 55.0494 483.279 53.2596 486.432 49.6337H486.92C488.206 49.6337 488.607 49.4945 488.607 49.0818C488.607 48.7156 487.275 47.8904 483.901 46.147C483.191 48.303 482.034 50.4126 480.172 53.074C479.107 54.5904 478.485 55.4156 476.798 57.293C474.941 53.7084 473.578 49.5409 472.704 44.9504L471.963 45.3682C472.596 48.7827 472.74 49.5615 473.069 51.145C474.669 58.0719 476.711 62.7965 480.306 67.521C482.79 70.822 484.57 72.4725 487.81 74.7213C488.962 72.2919 489.276 72.0134 491.451 71.6472L491.498 71.0541C487.542 69.3572 485.413 67.98 482.703 65.3186Z" fill="#231815"/>
<path d="M348.915 48.4681C355.663 50.0515 357.576 51.2017 357.576 53.6001C357.576 55.6168 356.095 57.5819 354.562 57.5819C353.842 57.5819 353.559 57.2467 353.081 55.8541C351.934 52.6872 350.926 51.0573 348.725 48.8497L348.915 48.4681ZM349.151 65.886C351.353 66.2213 351.975 66.3192 352.597 66.3192C353.456 66.3192 353.935 65.7416 355.277 63.1059C357.046 59.5522 360.683 51.4441 362.596 46.7402L363.172 46.9311L357.479 66.0304C357.098 67.1806 356.81 68.6196 356.81 69.0993C356.81 69.579 356.908 70.0587 357.334 71.2089C358.147 73.4628 358.337 74.3294 358.337 75.526C358.337 78.2596 356.378 80.4671 353.935 80.4671C352.736 80.4671 352.165 79.8895 352.165 78.7393C352.165 78.4504 352.31 77.2538 352.402 76.3409C352.834 73.3184 352.927 72.2146 352.927 70.724C352.927 69.2386 352.546 68.2277 351.78 67.6551C351.204 67.2219 350.679 66.9846 349.002 66.505L349.151 65.886ZM352.021 37.8121C356.136 38.7714 357.813 39.2975 359.104 40.0661C360.636 40.979 361.305 41.9847 361.305 43.4702C361.305 45.3889 359.916 47.1632 358.435 47.1632C357.623 47.1632 357.288 46.8279 356.62 45.2444C355.375 42.222 354.465 40.9274 351.739 38.2866L352.021 37.8121ZM383.653 56.4782C384.8 55.1371 385.185 54.7503 386.425 53.5021C388.338 54.7967 388.914 55.23 390.73 56.6226C391.208 57.0043 391.352 57.2002 391.352 57.4375C391.352 57.8708 390.828 58.206 389.197 58.7321C386.852 64.0086 385.129 66.7938 382.259 69.9607C386.183 72.4055 389.053 73.3648 394.413 74.1849V74.711C392.931 75.3351 392.309 75.8148 391.635 76.8206C391.059 77.6355 390.534 78.7392 390.298 79.5542C390.154 80.0803 389.964 80.2763 389.722 80.2763C389.578 80.2763 388.621 79.8431 387.521 79.2705C384.651 77.8315 381.683 75.5259 379.24 72.8903C377.661 74.1849 376.18 75.2423 374.359 76.346C370.722 78.4556 367.801 79.6109 362.349 81.0964L362.205 80.5187C368.475 77.4498 372.878 74.1849 376.75 69.7698C374.025 65.8809 372.78 62.8583 371.489 57.4839H368.999C368.665 63.0028 368.043 66.3605 366.7 69.8162C365.6 72.6943 363.974 75.4331 362.01 77.7335C361.099 78.7908 360.333 79.5593 358.564 81.0912L358.132 80.7095C360.621 76.6297 361.768 73.5092 362.771 68.3772C363.728 63.6269 364.108 58.2525 364.108 50.1908C364.108 47.0239 364.01 44.7184 363.82 41.6031C366.546 42.8977 367.312 43.3309 369.802 44.8628H374.971V42.3664C374.971 40.2053 374.925 39.0551 374.637 36.9456C380.572 37.5232 381.004 37.5696 381.529 37.7605C381.909 37.9049 382.105 38.0958 382.105 38.3846C382.105 38.8179 381.58 39.1531 380.001 39.7256V44.8576H385.695C386.842 43.4186 387.227 42.9853 388.421 41.6907C390.524 43.1762 391.147 43.6559 393.111 45.1929C393.59 45.5746 393.78 45.8634 393.78 46.1058C393.78 46.6319 393.399 46.7763 391.147 47.2096C387.747 50.0412 386.744 50.7581 384.064 52.5376L383.632 52.2023C384.877 49.6595 385.257 48.6538 386.168 45.8686H379.996V56.473H383.653V56.4782ZM374.991 45.8737H369.251C369.205 51.2946 369.154 53.1669 369.061 56.4782H374.997V45.8737H374.991ZM372.409 57.4891C374.23 62.193 375.614 64.4006 378.725 67.2786C380.881 64.349 382.172 61.8577 383.895 57.4891H372.409Z" fill="#A89FCA"/>
<path d="M431.501 56.0966C433.224 54.0799 433.702 53.5074 435.374 51.6351C437.863 53.6002 438.629 54.2243 440.975 56.339C441.165 56.5814 441.263 56.6743 441.263 56.8187C441.263 56.9631 441.073 57.1075 440.738 57.1075H425.807V74.0458C425.807 75.0051 426.095 75.1495 427.674 75.1495C428.106 75.1495 428.821 75.1496 429.829 75.196C429.973 75.196 430.071 75.196 430.117 75.196C432.128 75.196 433.419 75.098 433.8 74.8607C434.854 74.283 435.759 72.1271 438.347 64.1583L438.825 64.3027L438.347 72.5552C438.3 72.7924 438.3 72.9884 438.3 73.1793C438.3 73.8962 438.398 73.9942 439.591 74.6183C440.358 75 440.738 75.6241 440.738 76.537C440.738 77.6872 440.116 78.6465 439.015 79.1778C437.77 79.7555 435.811 79.9463 430.93 79.9463C424.614 79.9463 423.179 79.8483 422.171 79.3222C421.07 78.7445 420.638 77.8832 420.546 75.9129C420.546 75.098 420.546 74.6647 420.546 74.0406C420.546 73.561 420.546 73.5609 420.592 68.1401V57.1024H415.233C414.8 61.9507 414.754 62.0436 414.322 64.3491C413.077 70.3012 410.398 74.381 405.949 77.1147C403.367 78.6517 400.97 79.7555 397.288 81.0037L397 80.3795C403.218 76.5421 406.381 73.04 408.006 68.0473C409.009 65.0248 409.395 62.1467 409.631 57.1075H401.639C399.869 57.1075 398.959 57.154 397.478 57.3448L397.19 55.6169C398.867 55.9522 400.06 56.0966 401.685 56.0966H415.85V43.233C415.85 40.881 415.803 39.8753 415.562 37.6162C422.5 38.1423 423.266 38.2867 423.266 39.0088C423.266 39.4885 422.644 39.8701 421.255 40.159V56.0914H431.501V56.0966ZM402.595 40.1177C408.721 43.7179 411.735 46.5959 411.735 48.9943C411.735 51.0574 409.678 53.6518 408.099 53.6518C407.332 53.6518 406.952 53.1257 406.664 51.6351C405.707 47.0756 404.509 44.0996 402.117 40.5046L402.595 40.1177ZM423.842 54.5596C426.856 49.376 428.816 44.7701 429.968 40.1126C436.284 42.511 437.338 43.037 437.338 43.7127C437.338 44.2388 436.716 44.4348 434.993 44.4348C431.737 48.5611 429.058 51.2483 424.321 54.9413L423.842 54.5596Z" fill="#A89FCA"/>
</g>
<defs>
<filter id="filter0_d_89_1654" x="0" y="0" width="588.27" height="165.728" filterUnits="userSpaceOnUse" color-interpolation-filters="sRGB">
<feFlood flood-opacity="0" result="BackgroundImageFix"/>
<feColorMatrix in="SourceAlpha" type="matrix" values="0 0 0 0 0 0 0 0 0 0 0 0 0 0 0 0 0 0 127 0" result="hardAlpha"/>
<feOffset dy="4"/>
<feGaussianBlur stdDeviation="2"/>
<feComposite in2="hardAlpha" operator="out"/>
<feColorMatrix type="matrix" values="0 0 0 0 0 0 0 0 0 0 0 0 0 0 0 0 0 0 0.25 0"/>
<feBlend mode="normal" in2="BackgroundImageFix" result="effect1_dropShadow_89_1654"/>
<feBlend mode="normal" in="SourceGraphic" in2="effect1_dropShadow_89_1654" result="shape"/>
</filter>
</defs>
</svg>
